<?xml version="1.0" encoding="UTF-8" standalone="no"?>
<!DOCTYPE svg PUBLIC "-//W3C//DTD SVG 1.1//EN" "http://www.w3.org/Graphics/SVG/1.1/DTD/svg11.dtd">
<svg xmlns="http://www.w3.org/2000/svg" version="1.1" viewBox="0 0 1024 1024" width="1024.0pt" height="1024.0pt">
<path d="M 0.00 0.00 L 1024.00 0.00 L 1024.00 511.96 C 908.49 512.03 792.91 512.01 677.40 511.97 C 691.59 494.84 703.59 475.57 711.90 454.90 C 728.38 417.14 732.35 373.66 725.77 333.18 C 721.04 306.29 712.04 278.96 697.00 256.00 C 684.17 235.49 668.14 216.95 649.71 201.28 C 627.52 182.69 601.27 168.76 573.55 160.48 C 557.66 155.61 541.51 153.64 525.00 152.36 C 493.73 150.31 461.89 155.24 432.73 166.73 C 413.62 174.44 395.83 184.93 379.54 197.54 C 371.64 203.24 364.77 210.02 358.13 217.11 C 337.89 237.96 320.52 263.12 310.52 290.52 C 305.97 303.10 301.84 315.73 299.68 328.98 C 296.89 343.21 295.42 357.49 295.83 372.00 C 295.55 397.64 300.42 423.44 309.64 447.35 C 318.00 470.86 331.67 492.65 347.28 512.00 C 231.52 512.00 115.76 512.00 0.00 512.00 L 0.00 0.00 Z" fill="#004484" />
<path d="M 525.00 152.36 C 541.51 153.64 557.66 155.61 573.55 160.48 C 601.27 168.76 627.52 182.69 649.71 201.28 C 668.14 216.95 684.17 235.49 697.00 256.00 C 712.04 278.96 721.04 306.29 725.77 333.18 C 732.35 373.66 728.38 417.14 711.90 454.90 C 703.59 475.57 691.59 494.84 677.40 511.97 C 665.55 524.55 653.48 537.50 639.64 547.69 C 634.34 551.54 629.10 555.34 623.43 558.46 C 614.26 563.56 605.56 568.77 595.84 572.82 C 580.63 579.47 564.30 583.94 548.00 586.99 C 520.59 591.55 492.21 590.89 465.08 584.81 C 444.67 579.95 425.16 572.22 406.74 562.22 C 397.13 556.27 387.85 550.84 379.48 543.52 C 367.68 534.16 357.32 523.29 347.28 512.00 C 331.67 492.65 318.00 470.86 309.64 447.35 C 300.42 423.44 295.55 397.64 295.83 372.00 C 295.42 357.49 296.89 343.21 299.68 328.98 C 301.84 315.73 305.97 303.10 310.52 290.52 C 320.52 263.12 337.89 237.96 358.13 217.11 C 364.77 210.02 371.64 203.24 379.54 197.54 C 395.83 184.93 413.62 174.44 432.73 166.73 C 461.89 155.24 493.73 150.31 525.00 152.36 Z" fill="#f9f7f0" />
<path d="M 357.98 155.38 C 361.10 159.91 364.57 164.66 368.89 168.13 C 373.72 171.91 380.61 172.75 386.51 173.70 C 392.38 174.62 397.91 173.58 403.67 172.58 C 396.83 177.39 389.36 180.91 382.33 185.33 C 371.92 192.16 362.12 199.49 353.85 208.87 C 350.49 212.79 347.03 216.59 343.45 220.33 C 344.39 215.33 345.42 210.88 342.85 206.13 C 338.98 198.85 328.83 193.09 320.77 196.74 C 315.29 199.21 310.37 206.74 314.72 212.31 C 316.93 215.70 320.12 216.39 323.91 216.35 C 323.33 215.80 322.75 215.25 322.16 214.70 C 321.88 213.81 321.60 212.92 321.32 212.02 C 322.95 211.24 324.87 208.93 326.65 210.27 C 329.61 212.32 331.18 216.85 328.98 219.99 C 324.78 225.51 316.36 226.35 310.94 222.09 C 303.59 216.65 303.08 205.90 307.47 198.47 C 311.11 192.92 317.53 189.18 324.04 188.18 C 329.03 187.51 334.58 188.60 339.04 190.94 C 345.22 194.62 349.54 201.04 350.47 208.20 C 354.97 200.82 361.05 194.24 367.24 188.24 C 369.81 185.73 372.73 183.74 375.79 181.89 C 369.41 179.76 363.50 176.99 360.26 170.74 C 357.58 165.77 357.94 160.83 357.98 155.38 Z" fill="#f9f7f0" />
<path d="M 663.30 155.17 C 663.46 161.27 663.48 166.94 660.39 172.40 C 657.33 177.73 652.05 180.03 646.33 181.43 C 656.28 188.48 665.10 196.65 672.41 206.44 C 672.86 201.59 674.43 197.43 678.17 194.19 C 683.60 188.75 691.70 187.73 699.03 188.08 C 709.40 189.00 717.39 198.88 717.89 208.95 C 717.04 216.09 712.86 223.82 705.01 224.76 C 700.02 225.22 692.29 222.92 691.60 217.01 C 690.98 212.90 697.46 208.97 699.81 213.31 C 700.85 214.05 698.89 215.99 698.55 216.92 C 700.68 216.73 703.15 217.00 705.14 216.20 C 708.79 214.32 710.63 209.33 709.33 205.49 C 707.68 200.53 703.30 196.54 698.04 195.86 C 690.33 194.82 682.46 199.08 679.19 206.17 C 676.82 211.14 677.83 215.98 678.85 221.12 C 673.65 214.54 669.08 207.85 662.52 202.48 C 649.73 190.79 634.36 181.67 619.51 172.77 C 630.51 175.04 641.80 174.41 651.68 168.70 C 656.30 166.01 658.72 161.94 661.62 157.63 C 662.17 156.81 662.73 155.99 663.30 155.17 Z" fill="#f9f7f0" />
<path d="M 545.83 165.21 C 567.96 168.70 589.51 176.17 609.22 186.79 C 622.83 194.18 635.62 202.66 647.06 213.14 C 668.28 231.92 685.94 254.23 698.14 279.88 C 704.58 292.93 709.29 306.93 712.86 321.02 C 715.69 333.82 717.59 346.89 718.39 359.98 C 719.25 367.35 718.94 374.66 718.19 382.02 C 716.97 406.95 711.72 431.44 701.04 454.08 C 691.75 475.64 678.67 495.47 662.54 512.52 C 651.43 524.47 639.07 535.45 625.51 544.56 C 607.05 557.32 586.13 566.69 564.49 572.57 C 551.22 576.45 536.74 577.83 522.99 578.89 C 516.00 579.16 508.99 578.96 501.99 578.98 C 492.29 578.24 482.57 577.33 473.03 575.66 C 433.85 567.78 397.20 548.36 369.16 519.83 C 356.42 507.86 345.69 493.36 336.42 478.60 C 325.99 461.33 317.73 442.72 312.69 423.17 C 306.74 399.09 304.29 373.70 307.14 349.00 C 309.29 329.17 313.85 309.76 321.26 291.23 C 333.42 261.14 353.38 234.26 377.37 212.57 C 401.00 192.34 428.98 177.27 459.02 169.09 C 487.31 161.67 516.98 160.97 545.83 165.21 Z" fill="#004484" />
<path d="M 533.05 180.32 C 533.11 184.63 533.30 188.67 531.87 192.82 C 529.48 200.05 526.76 206.95 522.06 213.03 C 518.55 218.03 514.08 222.10 510.22 226.78 C 519.43 221.87 527.78 216.47 538.30 214.31 C 534.74 219.26 530.49 223.99 525.60 227.66 C 516.71 233.87 506.71 237.12 496.21 239.39 C 506.93 242.17 516.78 245.12 524.92 253.09 C 532.24 260.83 538.58 269.88 541.74 280.15 C 543.03 284.40 543.41 288.74 543.72 293.15 C 539.88 284.65 534.00 277.41 526.14 272.33 C 529.10 277.95 531.70 283.66 533.38 289.81 C 535.25 297.00 536.98 304.66 535.01 312.03 C 533.08 319.71 530.62 327.96 526.16 334.58 C 525.86 325.85 526.08 316.88 523.17 308.51 C 522.77 314.09 522.24 319.46 519.66 324.53 C 514.93 335.34 507.20 342.88 499.65 351.62 C 495.29 356.60 492.88 363.18 494.26 369.80 C 495.52 374.71 499.17 379.56 504.46 380.38 C 512.04 381.76 519.39 378.39 525.88 374.86 C 534.54 369.21 542.86 364.47 550.46 357.44 C 557.44 350.72 563.57 343.44 567.50 334.49 C 574.74 318.83 577.05 300.55 572.19 283.86 C 566.81 268.57 563.73 252.87 567.69 236.82 C 569.59 227.75 574.63 219.76 582.13 214.31 C 582.06 220.85 581.48 227.52 582.16 234.03 C 583.13 241.71 588.24 248.34 592.62 254.45 C 605.64 272.41 618.90 290.20 631.71 308.33 C 643.86 325.21 656.39 342.36 666.53 360.50 C 670.27 367.21 674.20 373.60 676.58 380.75 C 671.65 376.23 667.16 371.26 662.12 366.86 C 655.53 360.87 648.17 355.90 640.42 351.54 C 649.44 369.99 655.47 389.74 658.74 410.00 C 660.92 423.04 660.25 436.54 659.84 449.83 C 658.94 458.86 658.42 468.79 655.42 477.36 C 653.60 459.16 650.94 441.68 642.99 425.01 C 637.73 412.54 628.95 402.37 618.58 393.85 C 622.15 405.87 623.84 418.53 624.86 431.01 C 625.12 439.49 625.02 448.32 624.46 456.79 C 622.63 452.46 621.31 447.99 619.27 443.74 C 614.08 433.28 609.24 423.51 600.56 415.43 C 597.16 412.34 592.67 408.62 588.00 408.01 C 584.96 407.85 584.77 411.86 585.16 414.01 C 586.64 422.24 590.84 428.80 589.83 437.61 C 587.18 436.44 585.73 435.33 584.03 433.00 C 579.39 426.84 573.79 421.70 567.04 417.94 C 555.72 411.56 542.57 407.34 529.56 406.92 C 530.30 408.77 531.83 408.99 533.46 409.76 C 540.28 412.46 546.81 416.81 552.00 421.99 C 561.86 432.97 567.93 447.83 570.69 462.21 C 573.86 477.34 574.64 494.61 569.35 509.34 C 565.25 521.91 555.68 532.69 544.39 539.36 C 532.65 546.39 518.24 548.60 505.00 544.93 C 492.15 541.26 480.75 533.70 469.98 526.06 C 463.92 521.84 458.41 517.66 450.97 516.21 C 447.00 515.42 442.68 516.99 440.20 520.19 C 437.78 523.53 437.55 527.61 438.55 531.50 C 439.59 536.32 442.14 540.21 444.84 544.22 C 440.08 541.03 435.30 537.74 431.81 533.10 C 428.86 529.10 426.87 524.01 426.96 519.00 C 426.85 512.84 430.41 506.83 435.32 503.28 C 441.54 498.59 450.23 497.34 457.80 498.24 C 467.83 499.93 476.48 504.70 484.93 510.12 C 490.70 513.78 495.30 517.96 501.93 520.11 C 509.17 522.82 517.18 522.90 523.99 518.97 C 528.16 516.27 531.58 512.26 533.85 507.86 C 540.38 493.60 537.14 475.28 525.41 464.67 C 519.82 459.71 513.17 458.78 506.00 458.13 C 496.49 457.80 486.99 456.82 477.53 455.87 C 477.98 452.38 478.21 448.87 478.30 445.35 C 477.00 448.02 476.13 451.04 474.52 453.52 C 472.70 456.25 469.94 458.08 467.29 459.94 C 462.87 459.37 458.44 458.79 454.00 458.33 C 447.07 457.59 439.88 458.13 432.99 459.02 C 425.68 460.02 419.53 462.80 412.39 464.60 C 415.18 467.24 417.82 469.52 418.64 473.50 C 420.04 479.34 417.21 484.08 412.90 487.76 C 412.96 485.54 413.15 483.25 412.85 481.05 C 412.09 477.56 409.68 473.98 406.21 472.74 C 403.38 471.63 399.94 471.84 396.96 472.06 C 393.39 472.33 390.06 475.28 389.86 478.95 C 389.28 482.84 390.80 485.89 392.22 489.35 C 389.69 488.51 386.13 487.81 384.38 485.64 C 381.70 481.93 380.84 477.08 382.79 472.83 C 384.79 468.10 388.75 466.11 392.63 463.18 C 388.17 463.57 382.55 463.28 378.53 465.50 C 374.45 467.71 372.66 472.86 370.31 476.63 C 369.21 474.14 367.96 471.80 367.99 469.01 C 367.75 462.79 372.45 457.17 378.04 454.99 C 381.89 453.46 385.63 454.13 389.68 454.12 C 384.68 451.20 378.84 449.83 373.17 451.33 C 370.04 452.44 367.29 454.86 364.44 456.57 C 365.80 452.51 367.28 448.45 370.37 445.36 C 373.73 442.23 378.19 440.31 382.82 441.49 C 389.70 442.67 393.95 447.17 399.86 449.99 C 408.44 447.64 416.80 444.61 424.82 440.74 C 430.42 438.07 436.32 435.88 441.76 432.89 C 440.00 430.47 437.76 428.50 436.12 425.95 C 430.85 417.82 428.18 408.58 427.18 398.99 C 426.46 383.13 431.46 367.50 440.66 354.62 C 446.97 346.02 454.23 338.20 462.48 331.42 C 471.00 324.51 479.67 317.08 486.62 308.55 C 490.61 303.45 494.48 296.68 494.06 290.00 C 494.11 285.49 492.96 280.59 489.71 277.28 C 487.59 275.27 484.64 274.06 482.07 276.11 C 478.68 279.18 477.26 283.46 472.95 285.88 C 468.08 288.41 463.04 290.28 458.61 293.66 C 453.35 297.79 448.34 301.96 447.36 309.01 C 446.51 313.15 448.15 316.41 449.84 320.03 C 445.43 321.30 441.08 321.31 437.00 319.01 C 433.98 317.00 432.13 312.96 428.98 311.12 C 426.89 309.91 424.68 308.90 422.56 307.72 C 423.46 306.29 424.40 304.88 425.35 303.48 C 425.66 305.16 425.94 306.86 426.24 308.55 C 432.19 307.05 436.43 302.89 437.64 296.82 C 435.14 297.35 432.24 297.74 429.98 298.97 C 424.59 302.03 421.55 307.20 415.95 309.95 C 411.78 312.50 406.66 310.79 404.07 306.84 C 406.89 306.56 409.74 306.57 412.56 306.22 C 414.64 305.97 416.45 304.35 418.07 303.11 C 421.03 300.66 424.12 298.39 427.42 296.42 C 434.15 292.29 441.09 290.45 447.31 285.29 C 448.93 283.84 450.34 282.34 450.05 279.99 C 449.67 275.63 445.11 272.86 441.03 272.94 C 434.01 272.88 426.79 275.51 420.39 278.23 C 421.61 279.66 422.83 281.09 424.06 282.51 C 421.75 283.64 419.72 285.01 417.05 284.96 C 412.54 285.11 408.18 284.19 404.48 287.47 C 401.74 290.22 403.25 294.01 404.27 297.16 C 398.81 296.66 392.61 296.85 389.31 291.64 C 387.20 287.92 385.56 283.59 384.33 279.49 C 383.19 274.85 384.56 269.97 388.96 267.67 C 392.98 267.83 396.39 269.28 400.50 268.34 C 408.04 266.76 415.03 261.50 421.54 257.52 C 427.20 253.96 431.03 248.83 431.37 241.97 C 436.41 238.96 441.91 236.80 447.14 234.09 C 458.60 228.60 468.72 220.61 478.13 212.14 C 483.38 207.44 487.47 202.39 491.17 196.42 C 490.77 201.71 489.87 206.92 487.82 211.85 C 485.67 217.55 481.03 222.35 477.60 227.50 C 491.08 220.90 503.29 212.35 515.01 203.03 C 522.65 196.62 527.76 188.62 533.05 180.32 Z" fill="#f9f7f0" />
<path d="M 296.66 237.28 C 301.30 239.97 304.94 243.62 306.22 248.98 C 309.03 260.31 305.27 269.82 301.32 280.19 C 298.12 289.65 293.50 298.40 289.54 307.52 C 284.65 318.74 281.90 330.81 281.13 343.00 C 280.81 347.66 281.76 352.07 282.67 356.59 C 278.71 353.37 277.09 348.97 276.60 344.00 C 275.75 333.40 277.30 322.85 280.64 312.78 C 282.49 307.05 285.02 301.99 286.20 296.02 C 287.41 290.56 287.56 284.95 285.23 279.75 C 283.75 276.43 280.44 273.90 276.83 273.40 C 273.76 273.05 271.28 275.59 268.94 277.22 C 268.11 273.98 267.21 271.08 268.85 267.89 C 270.47 264.22 274.11 262.47 278.02 263.41 C 287.26 265.44 292.47 273.53 294.68 282.20 C 297.65 272.53 300.24 263.23 300.03 252.99 C 299.88 247.43 297.79 242.67 296.66 237.28 Z" fill="#f9f7f0" />
<path d="M 726.11 237.60 C 725.17 241.08 724.01 244.42 723.47 248.00 C 721.83 259.51 724.11 270.64 728.36 281.33 C 729.98 273.66 734.22 266.57 741.82 263.70 C 746.23 262.22 751.30 262.96 753.53 267.48 C 755.44 270.70 755.09 273.58 754.15 277.04 C 752.37 275.84 750.56 274.30 748.53 273.58 C 745.69 272.72 742.41 274.46 740.39 276.38 C 736.60 280.10 735.61 285.91 736.09 291.00 C 737.95 306.89 745.90 319.83 746.88 336.00 C 747.56 343.45 745.21 350.41 740.98 356.47 C 741.72 349.59 742.42 342.88 741.19 335.99 C 740.12 326.73 737.33 317.90 733.60 309.40 C 727.54 295.74 721.26 282.45 716.61 268.20 C 714.16 259.94 714.20 251.24 718.76 243.71 C 720.50 240.74 723.20 239.22 726.11 237.60 Z" fill="#f9f7f0" />
<path d="M 448.98 246.49 C 451.07 246.37 453.23 246.79 455.31 247.05 C 454.36 247.81 453.42 248.56 452.46 249.31 C 451.41 252.80 450.24 255.99 446.88 257.88 C 444.82 259.10 442.91 258.58 440.69 258.42 C 440.37 252.87 443.58 248.01 448.98 246.49 Z" fill="#004484" />
<path d="M 402.33 273.24 C 399.91 275.03 397.41 276.66 394.80 278.17 C 394.34 276.71 393.88 275.25 393.54 273.75 C 396.48 271.81 399.14 272.76 402.33 273.24 Z" fill="#004484" />
<path d="M 379.98 319.06 C 384.35 321.57 386.17 326.20 386.79 330.98 C 387.50 339.27 384.94 347.78 385.70 356.04 C 385.78 359.61 389.03 362.30 391.15 364.93 C 398.05 372.48 404.52 380.15 412.06 386.93 C 414.66 389.24 417.27 392.04 420.37 393.64 C 422.02 394.71 422.76 393.38 424.28 392.75 C 424.04 395.83 423.92 398.91 423.97 402.00 C 423.83 411.26 427.58 420.82 433.59 427.81 C 430.39 426.42 427.06 425.42 423.79 424.21 C 419.61 422.62 416.35 419.88 413.24 416.75 C 405.08 408.55 397.84 399.23 391.27 389.72 C 388.14 385.16 384.27 380.92 380.56 376.81 C 380.04 379.55 380.04 382.11 378.54 384.52 C 376.36 388.00 373.37 390.92 369.03 391.11 C 364.51 391.62 361.73 388.28 358.53 385.73 C 361.97 385.25 365.24 385.13 368.25 383.22 C 371.40 381.25 373.02 377.68 372.97 374.02 C 372.93 366.85 371.10 359.36 365.62 354.36 C 363.04 352.14 360.14 349.77 356.50 350.70 C 352.31 351.79 350.26 355.53 347.63 358.56 C 346.68 355.29 346.12 351.85 347.62 348.64 C 350.55 342.71 358.48 339.78 364.55 342.47 C 366.95 343.60 369.04 345.73 371.12 347.40 C 369.01 342.00 367.31 337.09 361.93 334.09 C 357.60 331.35 353.19 331.85 348.34 332.33 C 350.81 329.67 353.09 326.45 356.78 325.45 C 361.82 323.83 367.02 325.94 371.11 328.86 C 374.87 331.73 375.88 335.78 378.09 339.76 C 378.32 334.49 377.09 329.42 373.77 325.26 C 371.22 321.95 367.90 320.20 364.38 318.13 C 369.62 316.93 375.22 315.83 379.98 319.06 Z" fill="#f9f7f0" />
<path d="M 257.00 342.95 C 259.73 349.56 263.16 355.63 268.70 360.29 C 274.84 365.77 282.07 368.10 289.78 370.42 C 285.49 372.48 280.85 373.30 276.70 375.70 C 270.58 379.12 264.07 383.27 260.51 389.51 C 258.72 392.47 258.14 395.62 257.20 398.90 C 254.25 394.40 253.71 389.16 256.27 384.33 C 258.33 380.07 261.83 377.94 265.35 375.07 C 257.35 377.04 248.81 379.15 240.54 377.52 C 236.22 376.63 232.86 374.17 229.62 371.31 C 234.08 367.96 239.25 365.05 244.99 365.04 C 252.33 365.25 260.18 367.53 267.42 368.37 C 261.59 364.38 256.44 360.38 254.93 353.04 C 254.07 349.28 255.19 346.19 257.00 342.95 Z" fill="#f9f7f0" />
<path d="M 765.96 342.82 C 766.59 343.68 767.21 344.56 767.82 345.44 C 769.67 348.65 769.58 353.01 768.48 356.45 C 765.84 362.64 760.23 364.92 754.98 368.31 C 761.55 367.44 768.20 365.27 774.81 365.10 C 781.53 365.39 788.12 367.11 793.55 371.21 C 788.48 374.92 783.31 376.87 777.01 377.25 C 770.74 378.11 765.11 376.48 759.05 375.35 C 762.84 377.70 766.51 379.14 768.65 383.36 C 771.64 388.38 769.24 394.92 765.81 399.08 C 764.23 388.53 756.18 379.67 746.74 375.26 C 743.31 373.56 739.59 372.90 736.10 371.40 L 736.26 370.38 C 740.68 367.83 746.30 366.63 750.64 363.68 C 755.26 360.52 759.90 356.58 762.59 351.58 C 764.16 348.79 764.98 345.84 765.96 342.82 Z" fill="#f9f7f0" />
<path d="M 282.18 385.55 C 281.74 388.70 281.24 391.81 281.23 395.00 C 281.49 407.90 284.52 420.54 289.62 432.36 C 294.47 444.63 299.94 457.01 303.29 469.79 C 304.77 476.54 306.65 484.07 305.81 490.99 C 305.06 496.69 301.57 501.39 296.86 504.53 C 297.61 500.71 298.89 497.09 299.30 493.19 C 300.32 481.37 297.11 471.30 294.53 460.04 C 293.38 463.60 292.38 466.96 289.78 469.78 C 286.69 473.17 282.65 477.06 277.98 477.85 C 274.05 478.59 270.01 475.79 268.99 472.00 C 268.27 469.33 268.77 466.95 269.05 464.27 C 271.56 465.81 273.89 467.89 277.00 467.86 C 282.20 467.78 286.46 463.74 287.65 458.81 C 289.11 451.68 287.07 445.10 284.49 438.54 C 281.00 428.72 276.38 420.66 275.76 410.00 C 275.59 402.23 274.82 394.47 280.11 388.12 C 280.79 387.25 281.48 386.40 282.18 385.55 Z" fill="#f9f7f0" />
<path d="M 741.44 386.30 C 745.76 391.22 747.14 397.62 747.47 404.00 C 747.73 414.58 744.78 424.19 740.87 433.87 C 738.43 440.70 734.91 447.58 735.88 455.03 C 736.28 461.10 741.00 466.86 747.18 467.59 C 750.29 467.81 752.49 465.71 754.92 464.12 C 755.40 466.61 756.65 468.80 755.33 471.22 C 753.37 475.42 748.81 479.10 743.95 477.57 C 736.33 475.16 730.81 468.87 728.22 461.43 C 725.28 472.58 723.06 483.40 724.07 495.02 C 724.46 498.24 725.09 501.41 725.32 504.65 C 720.65 501.56 717.32 497.45 716.23 491.85 C 714.48 481.37 718.71 471.77 722.09 462.09 C 728.21 445.24 737.23 430.16 740.93 411.98 C 742.83 403.38 742.88 394.97 741.44 386.30 Z" fill="#f9f7f0" />
<path d="M 0.00 512.00 C 115.76 512.00 231.52 512.00 347.28 512.00 C 357.32 523.29 367.68 534.16 379.48 543.52 C 387.85 550.84 397.13 556.27 406.74 562.22 C 425.16 572.22 444.67 579.95 465.08 584.81 C 492.21 590.89 520.59 591.55 548.00 586.99 C 564.30 583.94 580.63 579.47 595.84 572.82 C 605.56 568.77 614.26 563.56 623.43 558.46 C 629.10 555.34 634.34 551.54 639.64 547.69 C 653.48 537.50 665.55 524.55 677.40 511.97 C 792.91 512.01 908.49 512.03 1024.00 511.96 L 1024.00 1024.00 L 0.00 1024.00 L 0.00 512.00 Z" fill="#e4b001" />
<path d="M 495.16 512.00 C 503.42 512.08 511.70 511.81 519.95 512.18 C 518.13 513.33 516.24 514.74 514.04 514.98 C 507.88 515.61 501.38 513.41 495.13 512.59 L 495.16 512.00 Z" fill="#e4b001" />
<path d="M 576.99 512.17 C 579.33 511.92 581.71 511.99 584.06 511.93 C 582.63 514.32 581.52 516.86 580.24 519.33 C 577.32 524.49 573.19 528.49 568.47 532.00 C 572.16 525.68 574.26 518.88 576.99 512.17 Z" fill="#f9f7f0" />
<path d="M 629.60 512.42 C 636.35 511.76 643.20 512.23 649.97 512.05 L 649.97 512.94 C 643.63 512.79 637.21 513.23 630.90 512.64 L 629.60 512.42 Z" fill="#e4b001" />
<path d="M 324.87 522.24 C 330.05 524.17 332.80 530.91 329.71 535.69 C 327.86 538.56 324.42 538.01 321.46 538.37 C 321.99 535.33 322.93 533.54 324.79 531.10 C 321.29 529.61 318.31 529.75 315.43 532.40 C 311.53 536.36 312.56 544.06 315.93 548.06 C 321.30 553.76 329.38 554.15 336.35 551.36 C 342.20 549.27 345.67 543.86 346.84 537.96 C 347.50 533.62 345.94 529.91 344.63 525.88 C 353.14 533.92 362.16 541.34 370.85 549.17 C 378.89 555.88 387.87 561.71 396.70 567.29 C 401.03 570.03 405.59 572.11 409.54 575.46 C 405.29 574.03 401.58 572.20 397.02 571.85 C 389.57 571.27 381.74 571.70 375.80 576.78 C 370.75 580.84 368.05 586.12 366.90 592.46 C 365.48 589.38 363.93 586.51 363.96 583.01 C 363.79 576.58 367.45 570.06 373.44 567.45 C 377.33 565.64 381.28 566.07 385.46 565.90 C 379.96 563.61 374.69 561.78 369.81 558.23 C 363.15 553.44 356.94 547.92 351.49 541.78 C 350.71 550.13 344.90 557.41 336.85 559.82 C 331.43 561.50 324.47 561.54 319.02 559.97 C 313.19 558.50 309.36 553.31 306.77 548.22 C 304.62 544.22 304.57 539.61 305.30 535.22 C 306.10 531.68 307.47 527.72 310.36 525.33 C 314.17 522.06 320.08 520.57 324.87 522.24 Z" fill="#f9f7f0" />
<path d="M 699.97 521.72 C 703.51 521.45 707.14 521.72 710.11 523.84 C 715.14 527.31 717.31 533.12 717.92 538.99 C 718.43 543.52 715.99 547.93 713.62 551.61 C 710.42 556.39 705.92 560.23 700.01 560.86 C 693.37 561.38 687.13 561.42 681.30 557.77 C 674.93 554.12 672.42 547.10 670.67 540.39 C 666.21 547.80 659.53 552.49 652.98 557.92 C 649.53 560.81 645.93 563.16 641.95 565.25 C 648.07 566.27 653.68 568.34 657.55 573.42 C 661.19 579.30 660.27 585.71 657.87 591.86 C 655.83 587.01 654.19 582.44 650.38 578.63 C 646.59 574.59 641.48 572.37 636.02 571.81 C 628.49 570.68 621.43 572.34 614.42 574.94 C 621.07 569.58 629.46 566.44 636.55 561.55 C 646.97 554.41 656.98 546.85 666.23 538.22 C 670.12 534.41 673.83 530.42 677.88 526.76 C 676.98 531.73 676.07 536.28 677.64 541.26 C 679.10 546.62 683.23 550.92 688.58 552.47 C 695.92 554.46 705.25 551.98 708.69 544.67 C 711.42 539.40 709.90 532.38 704.36 529.65 C 702.42 528.16 700.00 530.05 698.04 530.70 C 699.02 532.46 701.72 534.57 700.78 536.70 C 699.74 538.55 696.69 538.04 694.86 538.42 C 693.46 535.97 691.89 533.97 691.95 530.99 C 691.81 526.61 695.39 521.89 699.97 521.72 Z" fill="#f9f7f0" />
<path d="M 465.45 598.59 C 473.11 600.55 481.14 601.93 489.00 602.77 C 493.78 603.31 498.32 602.41 502.98 601.51 C 500.33 604.68 497.71 607.85 494.79 610.78 C 490.16 615.33 486.52 620.15 480.69 623.31 C 481.31 617.13 483.03 613.55 487.18 609.00 C 473.93 609.60 462.57 604.77 450.00 603.19 C 445.95 602.56 439.75 605.14 440.00 609.98 C 439.75 614.46 442.51 617.01 445.16 620.13 C 442.94 620.01 440.59 620.07 438.42 619.55 C 435.18 618.63 432.30 616.04 431.26 612.81 C 430.61 610.28 430.62 607.55 431.03 604.98 C 431.86 600.52 435.54 596.91 439.98 596.05 C 448.62 593.88 457.09 596.48 465.45 598.59 Z" fill="#f9f7f0" />
<path d="M 572.50 595.61 C 577.92 594.93 584.33 595.65 588.60 599.36 C 594.01 604.04 593.41 613.62 588.10 618.13 C 585.05 620.43 581.90 619.82 578.33 619.82 C 581.01 616.37 584.55 612.97 583.45 608.16 C 582.79 604.56 579.38 603.06 576.04 603.02 C 562.77 603.23 549.81 609.52 536.77 609.03 C 539.97 613.50 542.23 617.91 542.60 623.51 C 533.65 617.78 528.47 609.27 521.48 601.37 C 526.17 602.37 530.65 603.37 535.48 602.70 C 542.21 601.79 548.99 600.96 555.63 599.55 C 561.27 598.37 566.81 596.47 572.50 595.61 Z" fill="#f9f7f0" />
<path d="M 512.22 599.95 C 513.69 602.97 514.63 606.16 515.69 609.34 C 518.13 616.44 521.79 623.49 528.12 627.87 C 531.31 630.12 534.84 630.81 538.59 631.58 C 534.34 634.84 530.28 637.49 524.72 635.33 C 519.21 633.20 518.15 627.76 515.29 623.20 C 516.60 631.43 519.44 641.04 518.62 649.47 C 518.06 655.60 515.26 660.73 511.86 665.72 C 509.70 661.98 507.67 658.42 506.63 654.18 C 504.53 645.01 505.53 635.71 508.60 626.88 C 506.92 629.32 505.39 632.21 503.17 634.18 C 500.69 636.16 496.99 636.42 493.97 635.94 C 491.02 635.32 488.21 633.32 485.66 631.75 C 489.15 631.00 492.43 630.48 495.47 628.48 C 498.80 626.26 501.63 623.21 503.86 619.91 C 508.05 613.53 508.65 606.74 512.22 599.95 Z" fill="#f9f7f0" />
<path d="M 153.45 710.96 C 158.65 712.04 163.56 713.67 168.97 713.55 C 188.64 713.69 208.32 713.42 228.00 713.64 C 234.87 713.84 241.36 712.60 247.93 710.73 C 248.08 716.92 247.69 723.30 248.46 729.42 C 248.94 733.35 249.23 737.29 249.74 741.22 C 247.83 741.35 245.92 741.47 244.01 741.60 C 242.12 736.50 240.58 731.31 235.41 728.61 C 228.26 724.91 218.84 726.00 211.00 726.01 C 210.98 751.68 211.05 777.34 210.96 803.00 C 210.91 807.06 211.24 810.83 213.89 814.10 C 216.23 816.93 219.57 817.45 222.89 818.48 C 222.86 820.63 222.83 822.78 222.82 824.93 C 207.45 824.94 192.08 824.93 176.71 824.97 C 176.59 822.79 176.47 820.62 176.37 818.44 C 179.49 817.71 183.60 817.23 186.15 815.13 C 189.60 811.88 189.89 806.43 189.84 802.00 C 189.65 776.70 190.05 751.37 189.64 726.08 C 182.22 726.08 172.93 724.84 166.09 728.07 C 160.50 730.73 158.29 735.76 156.52 741.34 C 154.55 741.29 152.59 741.23 150.62 741.18 C 151.30 734.09 152.48 727.14 152.87 720.00 C 153.04 716.93 153.02 714.00 153.45 710.96 Z" fill="#f9f7f0" />
<path d="M 282.02 713.17 C 286.33 712.94 290.67 713.53 295.00 713.49 C 299.02 713.61 303.17 713.19 307.16 713.72 C 307.76 714.89 308.19 716.16 308.63 717.40 C 315.37 737.17 322.76 756.72 329.56 776.47 C 333.29 786.48 336.57 796.60 340.43 806.56 C 341.71 809.66 343.02 813.22 345.24 815.77 C 346.64 817.38 349.07 817.87 351.00 818.59 C 351.02 820.70 351.04 822.81 351.07 824.92 C 337.00 824.97 322.93 824.89 308.86 825.00 C 308.67 822.91 308.48 820.82 308.29 818.73 C 311.31 817.73 315.46 817.04 317.72 814.67 C 318.50 812.77 317.39 810.03 316.88 808.11 C 314.72 801.79 312.80 795.39 310.80 789.02 C 298.37 789.10 285.95 788.91 273.53 789.13 C 271.74 794.75 269.55 800.24 267.80 805.88 C 266.93 809.05 266.18 812.68 268.64 815.35 C 271.07 818.04 274.73 817.88 278.04 818.38 C 278.08 820.58 278.11 822.79 278.13 824.99 C 266.42 824.88 254.71 824.95 243.00 824.93 C 243.02 822.77 243.04 820.61 243.06 818.45 C 246.05 817.66 249.96 817.76 251.53 814.57 C 254.00 810.12 255.41 805.04 257.29 800.31 C 264.87 779.47 272.08 758.49 279.64 737.64 C 281.76 731.44 284.71 726.36 284.23 719.61 C 283.00 719.09 281.76 718.57 280.53 718.05 C 280.98 716.43 281.37 714.73 282.02 713.17 Z" fill="#f9f7f0" />
<path d="M 368.39 713.58 C 380.05 713.40 391.75 712.96 403.41 713.06 C 409.07 726.45 412.93 740.63 417.55 754.42 C 421.73 767.44 426.51 780.26 430.63 793.30 C 439.60 766.46 449.48 739.93 458.46 713.09 C 469.29 713.58 480.09 712.95 490.92 712.94 C 490.99 714.86 491.05 716.78 491.11 718.69 C 489.24 719.79 486.81 720.74 485.61 722.61 C 483.64 725.27 484.01 728.88 484.08 732.01 C 484.89 743.00 485.95 753.96 486.24 764.98 C 487.63 779.55 487.63 794.32 489.48 808.83 C 490.46 814.39 494.40 816.34 499.12 818.38 C 499.20 820.58 499.28 822.78 499.36 824.97 C 485.28 824.73 471.18 824.97 457.09 824.96 C 457.05 822.75 457.01 820.53 456.98 818.32 C 460.55 816.87 465.71 816.22 466.71 811.77 C 467.89 806.08 466.89 799.80 466.90 793.99 C 466.29 784.99 465.77 776.00 465.18 767.00 C 464.99 756.30 464.20 745.61 463.38 734.95 C 452.85 764.94 442.53 794.98 432.09 825.00 C 428.09 824.98 424.10 824.98 420.10 824.97 C 412.25 800.91 403.90 777.00 396.06 752.93 C 394.17 747.56 392.66 742.00 390.45 736.76 C 389.95 741.56 389.67 746.38 389.24 751.19 C 388.65 769.80 387.08 788.40 386.12 807.01 C 386.06 810.13 386.15 813.12 388.58 815.41 C 390.62 817.02 393.57 817.65 396.00 818.49 C 395.99 820.65 395.99 822.81 395.98 824.97 C 384.34 824.94 372.70 824.93 361.06 824.96 C 361.09 822.79 361.13 820.63 361.15 818.47 C 363.94 817.63 367.74 816.98 369.72 814.68 C 371.44 812.77 371.86 810.47 372.07 807.99 C 374.06 781.31 375.86 754.57 378.54 727.95 C 378.69 726.02 378.67 724.23 377.27 722.74 C 375.01 720.41 370.89 719.81 367.86 718.99 C 368.01 717.19 368.09 715.36 368.39 713.58 Z" fill="#f9f7f0" />
<path d="M 516.30 713.20 C 534.23 714.11 552.18 712.03 570.02 713.45 C 576.83 714.15 583.46 716.22 589.42 719.58 C 595.89 723.33 600.83 729.50 602.17 736.96 C 603.98 745.48 602.07 754.61 596.21 761.18 C 591.32 766.54 584.70 770.47 577.87 772.81 C 586.87 783.09 594.23 794.97 601.50 806.49 C 603.44 809.41 605.54 812.48 608.17 814.82 C 610.49 816.94 614.05 817.56 617.00 818.37 C 617.00 820.56 616.99 822.75 616.98 824.93 C 611.32 824.93 605.66 824.98 600.00 825.03 C 596.97 825.04 594.08 824.98 591.28 823.68 C 585.82 821.25 581.66 816.47 578.52 811.50 C 573.91 804.07 569.78 796.34 565.10 788.95 C 562.64 785.02 559.43 781.01 555.40 778.60 C 552.50 776.82 548.73 776.71 545.40 776.28 C 545.52 785.14 545.59 794.00 545.59 802.87 C 545.74 806.38 545.69 810.53 547.26 813.74 C 548.55 816.68 552.48 817.32 555.18 818.39 C 555.16 820.56 555.12 822.72 555.07 824.89 C 542.07 824.87 529.06 825.09 516.06 824.83 C 515.94 822.69 515.81 820.55 515.69 818.41 C 517.68 817.63 519.97 817.00 521.72 815.75 C 523.83 813.86 523.97 810.64 524.04 808.01 C 524.18 784.67 523.98 761.34 524.08 738.00 C 524.01 733.30 524.43 728.77 522.61 724.36 C 521.70 721.34 518.23 720.33 515.77 718.83 C 515.91 716.96 516.01 715.05 516.30 713.20 Z" fill="#f9f7f0" />
<path d="M 635.01 713.32 C 639.98 712.99 645.01 713.33 650.00 713.32 C 657.77 713.57 665.51 713.00 673.28 713.05 C 673.18 714.96 673.07 716.87 672.96 718.79 C 670.33 720.10 667.26 721.12 665.85 723.92 C 664.71 726.31 664.81 729.39 664.69 731.99 C 664.71 754.66 664.66 777.33 664.78 800.00 C 664.94 804.43 664.62 810.11 666.91 814.05 C 668.51 816.86 671.14 817.51 673.90 818.76 C 673.84 820.79 673.79 822.83 673.72 824.86 C 660.46 825.08 647.19 824.86 633.93 824.98 C 634.03 822.88 634.14 820.78 634.26 818.68 C 636.28 817.77 638.81 817.03 640.44 815.49 C 642.57 812.88 642.94 809.24 643.01 806.01 C 643.13 783.01 642.92 760.00 643.04 737.00 C 642.97 732.97 643.32 728.09 641.66 724.35 C 640.39 721.35 636.64 720.24 633.94 718.89 C 634.26 717.04 634.48 715.12 635.01 713.32 Z" fill="#f9f7f0" />
<path d="M 693.81 713.06 C 719.66 714.07 745.60 713.17 771.45 713.18 C 772.08 722.63 773.33 731.98 774.56 741.35 C 772.40 741.55 767.93 742.79 767.29 739.87 C 765.23 735.47 763.24 731.57 758.61 729.40 C 748.64 724.37 734.71 726.45 723.72 726.00 C 723.57 737.67 723.73 749.34 723.64 761.01 C 730.76 760.99 737.89 761.03 745.01 760.99 C 747.82 760.90 751.53 760.72 753.73 758.74 C 755.67 756.73 755.64 752.89 756.11 750.28 C 758.23 750.36 760.34 750.43 762.46 750.52 C 762.32 761.36 762.26 772.20 762.13 783.03 C 760.22 783.02 758.32 783.01 756.42 783.00 C 755.74 780.62 755.38 777.27 753.58 775.45 C 751.02 773.56 747.08 773.28 744.00 773.08 C 737.25 772.91 730.48 773.04 723.72 773.00 C 723.67 784.00 723.72 795.00 723.61 806.00 C 723.63 807.87 723.61 809.83 724.09 811.64 C 731.95 812.70 740.09 812.22 748.00 812.08 C 754.30 811.98 760.79 811.01 765.69 806.71 C 769.61 803.27 771.30 798.92 773.14 794.20 C 775.37 794.22 777.59 794.25 779.82 794.28 C 778.28 804.46 777.19 814.71 775.79 824.89 C 748.19 825.02 720.59 824.91 693.00 824.98 C 693.00 822.80 693.00 820.62 693.00 818.44 C 695.50 817.41 698.72 816.66 700.25 814.25 C 701.70 811.81 701.98 808.79 702.01 806.01 C 701.98 781.67 702.01 757.33 702.00 732.99 C 701.94 729.33 701.53 725.79 699.21 722.80 C 697.72 720.90 695.00 719.92 692.88 718.84 C 693.19 716.91 693.50 714.99 693.81 713.06 Z" fill="#f9f7f0" />
<path d="M 796.57 713.34 C 802.03 713.07 807.53 713.51 813.01 713.34 C 820.67 713.50 828.29 712.88 835.95 713.31 C 835.89 715.15 835.82 716.99 835.75 718.83 C 833.32 720.01 829.86 720.98 828.51 723.49 C 826.63 726.47 826.92 730.58 826.78 734.00 C 826.68 751.33 826.70 768.67 826.63 786.00 C 826.71 794.71 826.30 803.17 827.12 811.84 C 832.36 813.17 837.64 813.13 843.00 812.99 C 850.01 812.64 858.79 811.90 864.56 807.53 C 869.25 803.94 870.11 798.87 872.98 794.22 C 875.05 794.09 877.16 794.21 879.23 794.26 C 877.74 804.48 875.86 814.63 874.53 824.88 C 848.36 825.01 822.19 824.90 796.01 824.92 C 796.00 822.74 795.98 820.57 795.97 818.40 C 798.39 817.33 801.76 816.54 803.18 814.13 C 805.16 810.95 805.17 806.63 805.29 803.00 C 805.68 781.67 805.36 760.33 805.47 739.00 C 805.24 734.38 805.83 728.56 803.61 724.40 C 801.97 721.18 798.86 720.58 796.06 718.74 C 795.99 716.93 796.20 715.11 796.57 713.34 Z" fill="#f9f7f0" />
<path d="M 566.92 726.11 C 571.67 727.42 575.66 730.71 577.91 735.07 C 581.80 743.44 579.97 754.68 572.05 760.07 C 564.64 765.53 554.25 765.12 545.55 764.22 C 545.66 751.63 545.18 738.96 545.81 726.39 C 552.55 724.71 560.19 724.12 566.92 726.11 Z" fill="#e4b001" />
<path d="M 293.10 733.44 C 297.85 748.11 302.39 762.85 307.14 777.52 C 297.15 777.77 287.16 777.78 277.17 777.80 C 283.08 763.26 287.47 748.10 293.10 733.44 Z" fill="#e4b001" />
</svg>