<?xml version="1.0" encoding="UTF-8" standalone="no"?>
<!DOCTYPE svg PUBLIC "-//W3C//DTD SVG 1.1//EN" "http://www.w3.org/Graphics/SVG/1.1/DTD/svg11.dtd">
<svg xmlns="http://www.w3.org/2000/svg" version="1.1" viewBox="0 0 1254 836" width="1254.0pt" height="836.0pt">
<path d="M 0.00 0.00 L 1254.00 0.00 L 1254.00 417.60 C 1131.98 417.59 1009.95 417.60 887.93 417.58 C 887.61 406.02 887.31 394.49 885.97 383.00 C 883.01 359.59 877.28 336.36 868.36 314.50 C 847.80 264.54 812.33 220.55 766.98 191.01 C 709.05 153.33 636.18 141.18 568.95 156.68 C 531.04 165.66 493.94 182.85 464.13 208.15 C 450.05 219.30 437.26 232.01 426.14 246.12 C 401.07 277.29 383.04 314.04 373.81 352.96 C 370.13 367.74 367.73 382.80 367.19 398.04 C 366.43 404.58 366.70 411.10 366.57 417.67 C 361.72 417.48 356.86 417.61 352.00 417.58 C 234.67 417.59 117.33 417.59 0.00 417.58 L 0.00 0.00 Z" fill="#002e5d" />
<path d="M 766.98 191.01 C 812.33 220.55 847.80 264.54 868.36 314.50 C 877.28 336.36 883.01 359.59 885.97 383.00 C 887.31 394.49 887.61 406.02 887.93 417.58 C 887.21 425.38 887.99 433.17 886.77 440.97 C 884.19 466.81 878.05 492.34 868.50 516.49 C 865.10 524.68 861.42 532.76 857.61 540.77 C 848.49 559.46 837.33 576.95 823.56 592.55 C 815.67 602.16 806.34 610.76 797.46 619.45 C 794.11 622.85 790.53 625.87 786.70 628.72 C 771.35 640.84 754.32 651.00 736.77 659.60 C 719.22 668.19 700.30 674.29 681.23 678.46 C 670.85 680.36 660.59 682.40 650.01 682.76 C 635.67 684.59 621.38 684.60 607.01 683.16 C 584.59 681.31 562.21 676.83 540.93 669.47 C 520.26 661.60 500.29 651.50 482.07 638.91 C 457.33 621.74 435.67 600.40 417.85 576.14 C 405.15 559.50 395.12 541.12 387.06 521.83 C 379.76 503.23 373.86 483.79 370.85 464.00 C 368.31 448.75 366.55 433.14 366.57 417.67 C 366.70 411.10 366.43 404.58 367.19 398.04 C 367.73 382.80 370.13 367.74 373.81 352.96 C 383.04 314.04 401.07 277.29 426.14 246.12 C 437.26 232.01 450.05 219.30 464.13 208.15 C 493.94 182.85 531.04 165.66 568.95 156.68 C 636.18 141.18 709.05 153.33 766.98 191.01 Z" fill="#fdfdfa" />
<path d="M 652.01 169.69 C 701.67 174.17 749.39 195.27 786.51 228.48 C 801.09 241.24 813.79 256.32 824.89 272.16 C 842.46 297.53 855.51 326.22 862.70 356.24 C 866.40 371.12 868.13 386.72 869.38 401.99 C 869.72 414.61 870.00 427.41 868.68 439.98 C 866.71 462.88 861.33 485.11 853.79 506.78 C 843.74 532.76 829.56 557.31 811.78 578.79 C 785.93 609.73 752.16 634.79 714.48 649.34 C 691.35 658.49 666.81 663.78 642.00 665.38 C 632.64 665.72 623.36 665.74 614.00 665.41 C 572.16 662.69 531.26 649.95 496.17 626.80 C 483.50 618.38 471.68 608.82 460.66 598.33 C 441.11 578.95 424.31 556.89 411.56 532.46 C 401.35 513.26 394.42 491.96 389.70 470.79 C 386.93 456.38 384.54 441.45 384.26 426.78 C 383.61 419.39 383.63 412.40 384.28 405.01 C 384.56 390.96 386.75 376.79 389.49 363.03 C 400.34 313.81 426.07 267.42 462.97 232.96 C 492.38 204.98 529.63 185.12 568.98 175.40 C 596.02 168.78 624.34 167.18 652.01 169.69 Z" fill="#002e5d" />
<path d="M 626.61 191.73 C 637.09 230.07 642.80 270.43 650.12 309.53 C 651.83 320.29 654.49 330.86 655.88 341.65 C 676.60 327.45 697.59 313.65 718.20 299.30 C 735.71 287.79 753.03 276.00 770.51 264.46 C 767.26 269.57 763.99 274.65 760.79 279.79 C 743.64 305.76 727.45 332.37 710.37 358.39 C 706.08 364.80 701.91 371.33 697.83 377.88 C 697.43 378.47 697.23 379.08 697.23 379.71 C 737.44 388.34 780.01 397.00 820.48 405.38 C 830.06 407.45 840.02 409.00 849.43 411.83 C 797.41 422.21 745.58 433.51 693.58 443.96 C 696.67 449.28 700.15 454.37 703.44 459.56 C 710.74 470.62 717.66 481.92 725.22 492.77 C 734.55 506.81 743.72 520.94 753.09 534.95 C 759.12 544.31 765.55 553.44 771.40 562.92 C 758.65 555.09 746.50 546.23 734.06 537.92 C 708.53 520.44 682.90 503.06 657.57 485.28 C 653.12 507.13 649.15 529.09 645.06 551.00 C 639.28 581.05 633.77 611.39 627.70 641.35 C 626.55 637.94 625.33 634.57 624.57 631.04 C 620.25 612.65 617.18 593.97 613.42 575.46 C 607.77 545.74 602.23 516.01 597.07 486.19 C 580.93 497.37 564.38 508.02 548.15 519.07 C 527.73 532.80 507.12 546.28 486.84 560.21 C 488.98 555.66 491.91 551.78 494.54 547.53 C 504.17 532.15 513.84 516.82 523.37 501.39 C 535.05 482.13 546.95 463.03 559.42 444.26 C 516.99 435.66 474.46 426.48 432.00 417.93 C 424.50 416.18 416.78 415.20 409.40 413.01 C 459.28 402.19 509.22 391.35 559.06 380.35 C 545.32 360.80 532.69 340.37 519.59 320.42 C 506.60 301.80 494.99 282.27 482.12 263.60 C 490.40 269.45 498.73 275.22 507.18 280.82 C 522.50 291.18 537.75 301.63 553.16 311.85 C 567.52 321.67 582.20 331.05 596.48 340.99 C 602.20 313.81 607.45 286.51 612.64 259.22 C 617.28 237.79 620.79 216.15 625.87 194.81 C 626.12 193.78 626.36 192.76 626.61 191.73 Z" fill="#fdfdfa" />
<path d="M 366.57 417.67 C 366.55 433.14 368.31 448.75 370.85 464.00 C 373.86 483.79 379.76 503.23 387.06 521.83 C 395.12 541.12 405.15 559.50 417.85 576.14 C 435.67 600.40 457.33 621.74 482.07 638.91 C 500.29 651.50 520.26 661.60 540.93 669.47 C 562.21 676.83 584.59 681.31 607.01 683.16 C 621.38 684.60 635.67 684.59 650.01 682.76 C 660.59 682.40 670.85 680.36 681.23 678.46 C 700.30 674.29 719.22 668.19 736.77 659.60 C 754.32 651.00 771.35 640.84 786.70 628.72 C 790.53 625.87 794.11 622.85 797.46 619.45 C 806.34 610.76 815.67 602.16 823.56 592.55 C 837.33 576.95 848.49 559.46 857.61 540.77 C 861.42 532.76 865.10 524.68 868.50 516.49 C 878.05 492.34 884.19 466.81 886.77 440.97 C 887.99 433.17 887.21 425.38 887.93 417.58 C 1009.95 417.60 1131.98 417.59 1254.00 417.60 L 1254.00 836.00 L 0.00 836.00 L 0.00 417.58 C 117.33 417.59 234.67 417.59 352.00 417.58 C 356.86 417.61 361.72 417.48 366.57 417.67 Z" fill="#f4be00" />
</svg>