<?xml version="1.0" encoding="UTF-8" standalone="no"?>
<!DOCTYPE svg PUBLIC "-//W3C//DTD SVG 1.1//EN" "http://www.w3.org/Graphics/SVG/1.1/DTD/svg11.dtd">
<svg xmlns="http://www.w3.org/2000/svg" version="1.1" viewBox="0 0 1024 1024" width="1024.0pt" height="1024.0pt">
<path d="M 0.00 0.00 L 1024.00 0.00 L 1024.00 511.92 C 863.00 511.93 702.00 511.93 541.00 511.92 C 535.50 511.93 530.02 511.82 524.52 512.07 C 523.54 490.44 524.30 468.83 523.81 447.19 C 523.50 436.25 522.54 424.97 523.20 414.04 C 523.70 407.54 526.24 401.52 531.79 397.79 C 538.65 393.42 548.07 393.16 555.36 396.64 C 558.76 397.95 559.92 402.05 560.75 405.24 C 561.52 410.91 561.39 416.80 559.15 422.14 C 557.87 425.68 555.32 429.01 555.87 432.92 C 556.00 436.05 558.64 437.20 561.02 438.51 C 560.43 436.42 559.28 434.30 559.13 432.13 C 559.71 428.99 561.71 425.93 563.03 423.03 C 566.52 415.53 567.65 407.41 565.09 399.43 C 568.98 401.29 572.72 403.08 575.83 406.16 C 582.79 412.89 586.11 422.45 586.06 432.01 C 586.08 434.79 585.55 437.74 584.21 440.19 C 582.58 443.09 579.96 444.75 577.56 447.00 C 578.97 447.38 580.45 447.90 581.91 448.00 C 585.07 447.13 587.42 444.99 589.80 442.87 C 593.48 447.84 597.35 452.06 603.71 453.31 C 608.63 455.23 613.87 452.34 615.82 447.68 C 616.46 444.72 615.61 442.20 614.64 439.45 C 613.79 442.05 613.69 445.59 611.45 447.39 C 609.22 449.67 605.15 449.77 602.30 448.83 C 597.83 446.95 595.57 442.59 595.06 437.96 C 594.50 432.29 593.72 426.74 591.58 421.42 C 587.76 411.74 581.89 401.85 573.21 395.79 C 565.87 390.41 556.89 387.21 547.90 386.13 C 540.28 385.52 532.67 387.65 526.49 392.17 C 530.44 382.26 537.55 373.63 547.69 369.69 C 555.66 366.24 563.95 366.49 572.39 367.62 C 581.48 368.78 590.25 371.94 597.76 377.24 C 605.46 382.28 611.35 388.73 617.80 395.20 C 622.31 399.71 626.30 404.68 630.84 409.17 C 635.62 413.98 640.51 418.29 643.47 424.55 C 645.35 428.40 645.46 432.66 644.91 436.84 C 644.17 439.63 641.52 441.87 639.68 444.00 C 643.72 444.13 647.04 444.16 649.83 440.83 C 654.18 434.79 653.60 427.46 650.40 421.01 C 656.31 420.94 662.14 420.05 668.04 419.96 C 675.65 419.45 683.12 417.51 689.96 414.11 C 694.05 416.46 697.78 418.58 697.98 423.85 C 697.14 426.10 695.68 428.10 694.67 430.28 C 700.41 428.62 703.79 421.35 700.96 416.03 C 699.38 412.75 696.93 410.48 694.46 407.89 C 696.43 402.70 697.51 397.64 696.92 392.05 C 696.88 390.04 695.67 388.77 694.56 387.21 C 694.07 390.15 694.02 393.28 693.19 396.11 C 691.08 402.71 685.83 408.19 679.09 410.06 C 673.51 411.60 667.50 411.96 661.74 412.36 C 665.57 409.88 669.04 407.36 671.18 403.19 C 674.91 396.43 674.29 388.64 673.60 381.19 C 672.61 375.60 672.58 370.04 674.68 364.69 C 676.07 360.69 678.97 357.63 680.38 353.62 C 672.93 356.22 668.85 362.69 667.02 370.05 C 664.47 378.63 667.77 388.12 665.34 396.37 C 662.94 404.41 654.42 409.89 646.08 408.06 C 638.18 406.15 633.14 399.83 627.79 394.19 C 622.47 388.17 617.98 382.00 612.17 376.82 C 608.52 373.51 604.44 370.98 600.43 368.17 C 607.92 366.86 615.15 366.26 622.27 363.27 C 629.26 360.48 634.63 356.02 640.57 351.57 C 647.56 346.19 653.62 339.41 657.37 331.37 C 663.42 318.68 662.75 305.40 669.88 292.90 C 672.52 287.94 676.70 284.99 680.31 280.88 C 673.40 280.83 667.37 286.27 663.55 291.54 C 658.60 299.53 656.50 310.07 654.05 319.05 C 651.55 327.84 646.39 335.68 639.47 341.63 C 640.30 334.71 640.66 328.23 636.97 322.01 C 635.46 319.30 632.34 317.73 629.28 318.02 C 627.93 318.77 627.18 320.57 626.30 321.79 C 627.75 322.66 629.31 323.42 630.66 324.44 C 632.75 328.41 632.06 333.01 631.24 337.23 C 630.09 343.25 626.70 349.12 621.45 352.45 C 614.14 357.11 605.53 359.85 596.96 360.87 C 589.96 361.27 583.02 361.21 576.10 360.00 C 563.45 357.99 550.82 358.51 539.12 364.14 C 534.31 366.31 530.69 369.77 526.59 372.96 C 530.30 364.04 536.45 356.02 543.84 349.83 C 548.51 345.99 553.93 343.15 559.83 341.78 C 563.50 340.82 567.03 341.22 570.46 339.34 C 565.79 336.79 560.58 336.53 555.44 337.47 C 548.91 338.68 542.63 341.42 537.15 345.16 C 531.74 348.85 528.28 353.70 523.37 357.94 C 521.16 347.58 522.00 336.69 525.79 326.81 C 529.54 317.09 536.73 308.81 545.96 303.95 C 553.34 299.63 561.59 296.48 568.52 291.52 C 580.82 283.03 589.43 269.18 592.68 254.69 C 593.96 248.85 594.93 242.96 595.21 236.98 C 595.71 229.89 596.84 221.88 595.08 214.94 C 593.76 214.89 592.44 214.84 591.12 214.80 C 590.86 223.54 589.46 232.28 587.86 240.87 C 585.72 252.29 581.26 263.59 574.45 273.06 C 573.34 263.57 572.04 253.02 567.53 244.47 C 565.23 240.25 561.02 235.19 556.00 234.47 C 551.82 234.33 546.24 236.69 545.11 241.13 C 545.25 242.43 545.66 243.73 546.00 245.00 C 548.06 244.03 550.06 242.79 552.21 242.04 C 555.98 241.44 559.66 244.46 561.49 247.51 C 566.11 254.91 567.75 264.32 566.91 272.92 C 566.12 278.49 563.05 283.23 558.77 286.78 C 550.64 293.56 539.54 297.80 530.98 303.99 C 527.55 306.50 524.83 309.60 521.95 312.68 C 520.68 305.52 521.16 298.41 520.67 291.21 C 519.77 279.36 520.20 266.19 525.17 255.18 C 530.24 243.67 538.27 232.81 545.62 222.63 C 552.89 212.61 557.74 200.48 557.05 187.94 C 557.09 184.94 556.99 183.24 554.96 180.86 C 552.61 184.87 551.92 189.13 550.50 193.49 C 548.15 201.09 544.72 208.56 539.98 214.98 C 536.44 219.76 532.50 224.19 529.00 229.00 C 525.91 233.15 523.11 237.49 520.02 241.64 C 520.10 230.83 519.01 220.42 523.08 210.10 C 527.92 197.84 533.04 186.53 532.70 172.97 C 532.04 168.23 532.06 163.67 528.01 160.46 C 527.34 162.31 527.01 164.00 527.04 165.97 C 526.85 181.25 521.52 196.31 511.71 208.07 C 504.98 198.38 499.66 187.19 497.52 175.54 C 496.60 170.91 497.21 166.18 496.72 161.41 C 495.32 162.25 494.05 162.79 493.48 164.45 C 491.37 169.79 490.43 175.87 491.50 181.55 C 492.90 190.83 496.15 199.50 500.00 208.01 C 502.27 213.13 503.97 218.28 504.03 223.95 C 504.10 229.70 504.15 235.46 504.05 241.22 C 500.04 234.30 494.91 228.33 489.66 222.35 C 483.33 215.14 478.03 207.16 475.00 197.98 C 472.85 192.45 472.25 185.92 469.10 180.96 C 468.39 182.04 467.75 183.16 467.19 184.31 C 465.51 199.40 471.31 212.96 480.22 224.79 C 487.51 234.23 493.96 244.22 498.94 255.07 C 504.36 267.28 504.80 282.13 503.24 295.20 C 502.96 300.81 502.76 306.42 502.36 312.03 C 499.31 308.87 496.03 306.08 492.45 303.54 C 484.70 297.93 475.20 294.22 467.42 288.58 C 463.32 285.49 459.78 281.95 457.91 277.06 C 455.16 269.77 456.17 261.77 458.47 254.51 C 460.30 249.40 463.25 244.45 468.65 242.59 C 471.53 241.24 475.35 243.48 478.30 244.03 C 478.35 242.72 478.32 241.42 478.19 240.13 C 475.52 235.84 469.21 233.11 464.44 235.42 C 459.41 237.63 456.54 242.73 454.66 247.63 C 451.78 255.71 450.04 264.14 449.50 272.71 C 444.84 266.04 440.93 258.43 438.23 250.75 C 435.58 242.77 434.37 234.22 433.23 225.90 C 432.86 221.65 432.60 217.50 431.11 213.44 C 430.02 214.56 428.20 215.42 428.17 217.14 C 427.61 234.01 427.83 250.57 434.70 266.30 C 438.96 275.37 445.00 283.86 453.08 289.91 C 460.96 295.93 469.51 299.29 478.00 304.00 C 488.70 309.71 497.27 319.90 500.29 331.73 C 502.49 340.34 502.73 349.56 500.82 358.25 C 495.89 353.54 491.97 348.62 486.12 344.89 C 477.37 339.09 466.63 336.85 456.27 338.36 C 454.98 338.81 453.77 339.70 452.62 340.44 C 458.65 341.94 464.46 341.55 470.30 343.68 C 478.50 346.33 484.79 352.35 490.01 359.00 C 493.62 363.75 496.70 368.67 498.34 374.47 C 494.87 371.57 492.01 368.25 488.01 365.98 C 476.02 358.83 462.03 357.93 448.47 359.72 C 440.69 360.82 433.14 361.68 425.29 360.64 C 419.49 359.81 413.84 357.79 408.42 355.58 C 403.62 353.56 398.78 350.50 396.11 345.89 C 392.29 339.67 391.66 331.47 393.44 324.52 C 394.67 323.02 396.81 322.25 398.41 321.18 C 397.51 320.05 396.59 318.92 395.67 317.80 C 391.63 317.99 388.92 319.30 386.88 322.87 C 384.04 328.62 383.45 335.35 384.80 341.59 C 381.19 338.29 377.86 334.84 375.45 330.55 C 368.87 319.65 368.50 304.87 362.39 293.61 C 358.76 287.15 351.90 281.37 344.24 280.92 C 347.15 285.32 351.57 288.14 354.18 292.83 C 361.44 304.72 361.15 317.10 366.34 329.67 C 369.45 337.97 375.69 344.97 382.49 350.50 C 389.57 355.76 396.32 361.42 404.77 364.22 C 411.17 366.55 417.63 367.15 424.30 368.15 C 416.65 373.59 409.50 379.21 403.61 386.59 C 397.66 393.34 391.33 402.00 383.33 406.33 C 375.35 410.75 364.82 407.39 360.64 399.35 C 357.09 392.37 358.99 384.34 358.92 376.96 C 358.43 370.21 356.56 362.37 351.23 357.75 C 349.26 355.84 346.86 354.73 344.35 353.71 C 345.89 358.37 349.40 361.64 350.53 366.51 C 352.74 373.88 351.24 380.57 350.55 387.99 C 349.65 395.01 351.89 402.94 357.13 407.88 C 358.91 409.63 360.99 410.78 363.09 412.09 C 357.01 412.07 350.70 411.70 344.78 410.21 C 338.09 408.36 333.65 402.86 331.48 396.50 C 330.67 393.55 330.58 390.37 330.05 387.35 C 329.00 388.51 328.08 389.49 327.83 391.11 C 326.71 396.48 328.10 402.63 329.72 407.81 C 326.17 411.78 322.32 415.13 322.91 421.00 C 322.95 425.90 325.45 429.11 330.29 430.07 C 328.94 427.22 326.15 425.39 326.88 422.10 C 327.47 418.68 331.19 415.68 334.28 414.45 C 338.44 415.44 342.24 417.70 346.52 418.48 C 355.53 420.34 364.94 420.29 374.11 421.02 C 372.38 426.29 370.80 432.54 373.14 437.87 C 375.38 442.44 379.61 444.46 384.63 444.03 C 381.75 440.17 378.62 437.33 378.96 432.05 C 379.68 424.63 385.22 417.43 389.80 411.81 C 398.36 402.62 406.48 393.27 415.85 384.84 C 421.91 379.71 428.34 374.70 435.79 371.76 C 445.97 367.78 456.96 366.10 467.86 367.21 C 475.85 368.46 483.37 372.12 488.92 378.07 C 492.95 382.24 495.90 387.21 498.18 392.52 C 494.02 389.90 490.09 387.45 485.07 386.86 C 476.58 384.92 468.21 387.26 460.29 390.31 C 452.19 393.40 445.47 399.55 440.68 406.68 C 435.99 413.82 433.42 422.30 431.58 430.57 C 430.32 436.11 428.44 442.25 424.57 446.56 C 421.80 449.98 415.84 450.29 412.65 447.36 C 409.96 445.46 411.03 441.37 410.55 438.46 C 409.12 441.28 407.06 444.18 408.53 447.42 C 410.14 452.30 415.46 454.68 420.27 453.22 C 426.75 451.55 430.37 447.17 434.82 442.61 C 437.30 444.58 440.15 446.92 443.21 447.89 C 444.58 448.31 446.25 447.07 447.49 446.57 C 443.57 444.03 440.06 441.82 438.98 436.93 C 437.14 426.60 440.71 414.65 448.23 407.23 C 451.71 404.09 455.97 401.75 460.02 399.44 C 458.37 408.00 458.39 416.75 462.26 424.74 C 463.42 427.28 465.30 430.16 465.46 432.99 C 465.18 434.84 464.47 436.63 464.00 438.44 C 465.73 437.59 468.42 436.86 469.04 434.81 C 471.01 431.13 467.91 426.89 466.60 423.40 C 463.12 415.98 463.19 407.57 465.93 399.93 C 466.75 397.49 469.29 396.33 471.53 395.50 C 477.83 393.45 485.11 394.20 491.13 396.85 C 495.56 398.83 498.11 402.83 499.82 407.19 C 501.82 412.23 500.78 418.57 501.02 424.00 C 501.27 431.71 500.06 439.29 500.04 446.98 C 499.92 462.66 500.25 478.31 499.65 493.99 C 499.60 500.00 499.05 505.99 499.02 511.99 C 332.70 511.81 166.32 512.01 0.00 511.89 L 0.00 0.00 Z" fill="#005731" />
<path d="M 512.64 85.75 C 514.42 90.95 515.97 96.23 517.70 101.46 C 523.25 101.43 528.80 101.40 534.35 101.23 C 530.54 104.15 526.60 106.88 522.81 109.83 C 522.00 110.63 520.25 111.45 520.93 112.83 C 522.34 117.58 524.02 122.24 525.24 127.05 C 520.94 123.50 516.46 120.20 511.99 116.86 C 507.59 120.33 503.12 123.71 498.77 127.25 C 500.39 121.92 502.16 116.63 503.80 111.31 C 499.39 107.93 495.02 104.52 490.60 101.16 C 496.24 101.11 501.88 101.23 507.53 101.00 C 509.13 95.89 510.81 90.78 512.64 85.75 Z" fill="#ffffff" />
<path d="M 594.07 136.51 C 595.81 141.64 597.21 146.88 598.97 152.01 C 604.45 152.00 609.93 151.99 615.42 152.02 C 611.07 155.29 606.62 158.42 602.45 161.93 C 603.86 167.07 605.80 172.03 607.27 177.14 C 603.04 173.79 598.74 170.59 594.13 167.78 C 589.78 171.07 585.27 174.15 580.66 177.06 C 582.38 171.99 584.33 167.01 586.12 161.96 C 582.02 158.50 577.58 155.50 573.46 152.07 C 578.59 151.93 583.71 152.01 588.83 152.16 C 590.55 146.91 592.08 141.68 594.07 136.51 Z" fill="#ffffff" />
<path d="M 430.13 137.18 C 431.92 142.18 433.67 147.20 435.22 152.28 C 440.63 152.23 446.04 151.99 451.45 152.06 C 447.26 155.50 442.88 158.70 438.64 162.06 C 439.96 167.22 441.75 172.21 443.34 177.28 C 438.86 174.10 434.45 170.84 429.93 167.71 C 425.52 170.86 421.27 174.22 416.80 177.28 C 418.60 172.20 420.36 167.10 422.13 162.00 C 417.66 158.78 413.35 155.35 408.97 151.99 C 414.35 152.01 419.72 151.98 425.10 152.01 C 426.83 147.09 428.23 142.04 430.13 137.18 Z" fill="#ffffff" />
<path d="M 528.01 160.46 C 532.06 163.67 532.04 168.23 532.70 172.97 C 533.04 186.53 527.92 197.84 523.08 210.10 C 519.01 220.42 520.10 230.83 520.02 241.64 C 523.11 237.49 525.91 233.15 529.00 229.00 C 532.50 224.19 536.44 219.76 539.98 214.98 C 544.72 208.56 548.15 201.09 550.50 193.49 C 551.92 189.13 552.61 184.87 554.96 180.86 C 556.99 183.24 557.09 184.94 557.05 187.94 C 557.74 200.48 552.89 212.61 545.62 222.63 C 538.27 232.81 530.24 243.67 525.17 255.18 C 520.20 266.19 519.77 279.36 520.67 291.21 C 521.16 298.41 520.68 305.52 521.95 312.68 C 524.83 309.60 527.55 306.50 530.98 303.99 C 539.54 297.80 550.64 293.56 558.77 286.78 C 563.05 283.23 566.12 278.49 566.91 272.92 C 567.75 264.32 566.11 254.91 561.49 247.51 C 559.66 244.46 555.98 241.44 552.21 242.04 C 550.06 242.79 548.06 244.03 546.00 245.00 C 545.66 243.73 545.25 242.43 545.11 241.13 C 546.24 236.69 551.82 234.33 556.00 234.47 C 561.02 235.19 565.23 240.25 567.53 244.47 C 572.04 253.02 573.34 263.57 574.45 273.06 C 581.26 263.59 585.72 252.29 587.86 240.87 C 589.46 232.28 590.86 223.54 591.12 214.80 C 592.44 214.84 593.76 214.89 595.08 214.94 C 596.84 221.88 595.71 229.89 595.21 236.98 C 594.93 242.96 593.96 248.85 592.68 254.69 C 589.43 269.18 580.82 283.03 568.52 291.52 C 561.59 296.48 553.34 299.63 545.96 303.95 C 536.73 308.81 529.54 317.09 525.79 326.81 C 522.00 336.69 521.16 347.58 523.37 357.94 C 528.28 353.70 531.74 348.85 537.15 345.16 C 542.63 341.42 548.91 338.68 555.44 337.47 C 560.58 336.53 565.79 336.79 570.46 339.34 C 567.03 341.22 563.50 340.82 559.83 341.78 C 553.93 343.15 548.51 345.99 543.84 349.83 C 536.45 356.02 530.30 364.04 526.59 372.96 C 530.69 369.77 534.31 366.31 539.12 364.14 C 550.82 358.51 563.45 357.99 576.10 360.00 C 583.02 361.21 589.96 361.27 596.96 360.87 C 605.53 359.85 614.14 357.11 621.45 352.45 C 626.70 349.12 630.09 343.25 631.24 337.23 C 632.06 333.01 632.75 328.41 630.66 324.44 C 629.31 323.42 627.75 322.66 626.30 321.79 C 627.18 320.57 627.93 318.77 629.28 318.02 C 632.34 317.73 635.46 319.30 636.97 322.01 C 640.66 328.23 640.30 334.71 639.47 341.63 C 646.39 335.68 651.55 327.84 654.05 319.05 C 656.50 310.07 658.60 299.53 663.55 291.54 C 667.37 286.27 673.40 280.83 680.31 280.88 C 676.70 284.99 672.52 287.94 669.88 292.90 C 662.75 305.40 663.42 318.68 657.37 331.37 C 653.62 339.41 647.56 346.19 640.57 351.57 C 634.63 356.02 629.26 360.48 622.27 363.27 C 615.15 366.26 607.92 366.86 600.43 368.17 C 604.44 370.98 608.52 373.51 612.17 376.82 C 617.98 382.00 622.47 388.17 627.79 394.19 C 633.14 399.83 638.18 406.15 646.08 408.06 C 654.42 409.89 662.94 404.41 665.34 396.37 C 667.77 388.12 664.47 378.63 667.02 370.05 C 668.85 362.69 672.93 356.22 680.38 353.62 C 678.97 357.63 676.07 360.69 674.68 364.69 C 672.58 370.04 672.61 375.60 673.60 381.19 C 674.29 388.64 674.91 396.43 671.18 403.19 C 669.04 407.36 665.57 409.88 661.74 412.36 C 667.50 411.96 673.51 411.60 679.09 410.06 C 685.83 408.19 691.08 402.71 693.19 396.11 C 694.02 393.28 694.07 390.15 694.56 387.21 C 695.67 388.77 696.88 390.04 696.92 392.05 C 697.51 397.64 696.43 402.70 694.46 407.89 C 696.93 410.48 699.38 412.75 700.96 416.03 C 703.79 421.35 700.41 428.62 694.67 430.28 C 695.68 428.10 697.14 426.10 697.98 423.85 C 697.78 418.58 694.05 416.46 689.96 414.11 C 683.12 417.51 675.65 419.45 668.04 419.96 C 662.14 420.05 656.31 420.94 650.40 421.01 C 653.60 427.46 654.18 434.79 649.83 440.83 C 647.04 444.16 643.72 444.13 639.68 444.00 C 641.52 441.87 644.17 439.63 644.91 436.84 C 645.46 432.66 645.35 428.40 643.47 424.55 C 640.51 418.29 635.62 413.98 630.84 409.17 C 626.30 404.68 622.31 399.71 617.80 395.20 C 611.35 388.73 605.46 382.28 597.76 377.24 C 590.25 371.94 581.48 368.78 572.39 367.62 C 563.95 366.49 555.66 366.24 547.69 369.69 C 537.55 373.63 530.44 382.26 526.49 392.17 C 532.67 387.65 540.28 385.52 547.90 386.13 C 556.89 387.21 565.87 390.41 573.21 395.79 C 581.89 401.85 587.76 411.74 591.58 421.42 C 593.72 426.74 594.50 432.29 595.06 437.96 C 595.57 442.59 597.83 446.95 602.30 448.83 C 605.15 449.77 609.22 449.67 611.45 447.39 C 613.69 445.59 613.79 442.05 614.64 439.45 C 615.61 442.20 616.46 444.72 615.82 447.68 C 613.87 452.34 608.63 455.23 603.71 453.31 C 597.35 452.06 593.48 447.84 589.80 442.87 C 587.42 444.99 585.07 447.13 581.91 448.00 C 580.45 447.90 578.97 447.38 577.56 447.00 C 579.96 444.75 582.58 443.09 584.21 440.19 C 585.55 437.74 586.08 434.79 586.06 432.01 C 586.11 422.45 582.79 412.89 575.83 406.16 C 572.72 403.08 568.98 401.29 565.09 399.43 C 567.65 407.41 566.52 415.53 563.03 423.03 C 561.71 425.93 559.71 428.99 559.13 432.13 C 559.28 434.30 560.43 436.42 561.02 438.51 C 558.64 437.20 556.00 436.05 555.87 432.92 C 555.32 429.01 557.87 425.68 559.15 422.14 C 561.39 416.80 561.52 410.91 560.75 405.24 C 559.92 402.05 558.76 397.95 555.36 396.64 C 548.07 393.16 538.65 393.42 531.79 397.79 C 526.24 401.52 523.70 407.54 523.20 414.04 C 522.54 424.97 523.50 436.25 523.81 447.19 C 524.30 468.83 523.54 490.44 524.52 512.07 C 524.75 521.38 525.03 530.69 524.99 540.00 C 524.96 546.34 525.76 552.62 525.93 558.95 C 525.94 569.34 527.05 579.65 527.08 590.04 C 528.18 602.43 529.03 616.13 534.57 627.41 C 540.61 640.30 553.07 650.03 566.94 653.06 C 584.75 657.13 604.12 655.55 621.43 660.57 C 628.00 662.41 634.97 665.29 640.01 670.01 C 645.35 674.88 647.99 682.63 646.73 689.74 C 645.96 693.70 643.50 697.13 639.77 698.78 C 637.37 699.86 634.96 699.87 632.37 700.00 C 634.13 697.32 637.31 695.50 638.60 692.60 C 640.05 687.91 639.35 681.85 635.84 678.19 C 631.91 673.91 626.47 671.63 621.03 669.95 C 611.47 666.86 601.03 665.64 591.02 664.92 C 596.02 669.22 600.47 673.62 603.23 679.73 C 604.43 682.50 604.66 685.90 603.90 688.81 C 602.61 692.88 598.61 695.59 594.73 696.87 C 592.53 697.58 590.61 696.70 588.45 696.20 C 591.97 693.76 596.31 692.85 596.87 687.91 C 596.63 682.42 592.38 677.10 588.36 673.65 C 581.69 668.01 573.55 666.31 565.19 664.79 C 561.05 664.01 556.86 663.43 552.67 662.97 C 555.74 667.38 558.87 671.32 560.38 676.61 C 562.01 681.97 560.79 688.62 556.09 692.09 C 553.43 694.12 550.50 694.49 547.32 695.14 C 547.21 694.18 547.11 693.22 547.01 692.26 C 549.20 690.53 551.67 689.35 552.51 686.50 C 554.25 680.94 551.81 674.27 547.56 670.46 C 543.01 666.36 536.92 663.70 531.13 661.88 C 522.42 659.20 513.73 659.70 504.79 660.63 C 498.21 661.16 490.73 661.59 484.82 664.80 C 480.90 667.00 476.98 669.71 474.67 673.67 C 472.15 677.69 470.99 682.95 472.42 687.54 C 474.20 689.95 476.81 691.66 478.72 693.99 C 475.42 694.03 471.41 694.66 468.73 692.25 C 464.65 688.71 464.36 682.96 464.67 677.95 C 465.00 672.53 467.40 668.08 470.23 663.59 C 459.49 664.62 449.54 665.18 440.17 671.17 C 435.83 674.07 430.97 678.40 429.54 683.60 C 428.69 686.17 429.42 688.97 430.77 691.22 C 432.29 693.40 435.15 694.82 437.33 696.26 C 435.76 696.76 433.91 697.87 432.24 697.69 C 427.83 696.66 423.54 694.52 422.03 689.92 C 420.15 685.08 421.86 680.54 424.24 676.26 C 426.86 671.60 430.61 668.60 434.41 665.00 C 427.02 664.91 419.62 665.56 412.28 666.37 C 403.99 667.72 395.20 671.16 389.19 677.20 C 385.63 680.75 382.77 686.51 384.37 691.58 C 385.16 695.13 389.00 696.11 391.53 698.16 L 390.88 699.94 C 386.44 700.41 381.54 698.86 378.61 695.39 C 375.65 691.67 375.24 686.27 376.96 681.93 C 379.82 674.70 385.24 668.74 392.09 665.09 C 404.69 658.15 418.48 657.90 432.41 656.44 C 441.55 655.20 451.21 654.78 460.05 652.08 C 472.21 648.39 482.83 639.91 488.42 628.41 C 495.53 614.80 495.90 597.94 496.37 582.96 C 497.18 574.09 496.76 565.19 497.62 556.32 C 498.24 549.45 497.82 542.57 498.44 535.69 C 499.12 527.78 499.00 519.92 499.02 511.99 C 499.05 505.99 499.60 500.00 499.65 493.99 C 500.25 478.31 499.92 462.66 500.04 446.98 C 500.06 439.29 501.27 431.71 501.02 424.00 C 500.78 418.57 501.82 412.23 499.82 407.19 C 498.11 402.83 495.56 398.83 491.13 396.85 C 485.11 394.20 477.83 393.45 471.53 395.50 C 469.29 396.33 466.75 397.49 465.93 399.93 C 463.19 407.57 463.12 415.98 466.60 423.40 C 467.91 426.89 471.01 431.13 469.04 434.81 C 468.42 436.86 465.73 437.59 464.00 438.44 C 464.47 436.63 465.18 434.84 465.46 432.99 C 465.30 430.16 463.42 427.28 462.26 424.74 C 458.39 416.75 458.37 408.00 460.02 399.44 C 455.97 401.75 451.71 404.09 448.23 407.23 C 440.71 414.65 437.14 426.60 438.98 436.93 C 440.06 441.82 443.57 444.03 447.49 446.57 C 446.25 447.07 444.58 448.31 443.21 447.89 C 440.15 446.92 437.30 444.58 434.82 442.61 C 430.37 447.17 426.75 451.55 420.27 453.22 C 415.46 454.68 410.14 452.30 408.53 447.42 C 407.06 444.18 409.12 441.28 410.55 438.46 C 411.03 441.37 409.96 445.46 412.65 447.36 C 415.84 450.29 421.80 449.98 424.57 446.56 C 428.44 442.25 430.32 436.11 431.58 430.57 C 433.42 422.30 435.99 413.82 440.68 406.68 C 445.47 399.55 452.19 393.40 460.29 390.31 C 468.21 387.26 476.58 384.92 485.07 386.86 C 490.09 387.45 494.02 389.90 498.18 392.52 C 495.90 387.21 492.95 382.24 488.92 378.07 C 483.37 372.12 475.85 368.46 467.86 367.21 C 456.96 366.10 445.97 367.78 435.79 371.76 C 428.34 374.70 421.91 379.71 415.85 384.84 C 406.48 393.27 398.36 402.62 389.80 411.81 C 385.22 417.43 379.68 424.63 378.96 432.05 C 378.62 437.33 381.75 440.17 384.63 444.03 C 379.61 444.46 375.38 442.44 373.14 437.87 C 370.80 432.54 372.38 426.29 374.11 421.02 C 364.94 420.29 355.53 420.34 346.52 418.48 C 342.24 417.70 338.44 415.44 334.28 414.45 C 331.19 415.68 327.47 418.68 326.88 422.10 C 326.15 425.39 328.94 427.22 330.29 430.07 C 325.45 429.11 322.95 425.90 322.91 421.00 C 322.32 415.13 326.17 411.78 329.72 407.81 C 328.10 402.63 326.71 396.48 327.83 391.11 C 328.08 389.49 329.00 388.51 330.05 387.35 C 330.58 390.37 330.67 393.55 331.48 396.50 C 333.65 402.86 338.09 408.36 344.78 410.21 C 350.70 411.70 357.01 412.07 363.09 412.09 C 360.99 410.78 358.91 409.63 357.13 407.88 C 351.89 402.94 349.65 395.01 350.55 387.99 C 351.24 380.57 352.74 373.88 350.53 366.51 C 349.40 361.64 345.89 358.37 344.35 353.71 C 346.86 354.73 349.26 355.84 351.23 357.75 C 356.56 362.37 358.43 370.21 358.92 376.96 C 358.99 384.34 357.09 392.37 360.64 399.35 C 364.82 407.39 375.35 410.75 383.33 406.33 C 391.33 402.00 397.66 393.34 403.61 386.59 C 409.50 379.21 416.65 373.59 424.30 368.15 C 417.63 367.15 411.17 366.55 404.77 364.22 C 396.32 361.42 389.57 355.76 382.49 350.50 C 375.69 344.97 369.45 337.97 366.34 329.67 C 361.15 317.10 361.44 304.72 354.18 292.83 C 351.57 288.14 347.15 285.32 344.24 280.92 C 351.90 281.37 358.76 287.15 362.39 293.61 C 368.50 304.87 368.87 319.65 375.45 330.55 C 377.86 334.84 381.19 338.29 384.80 341.59 C 383.45 335.35 384.04 328.62 386.88 322.87 C 388.92 319.30 391.63 317.99 395.67 317.80 C 396.59 318.92 397.51 320.05 398.41 321.18 C 396.81 322.25 394.67 323.02 393.44 324.52 C 391.66 331.47 392.29 339.67 396.11 345.89 C 398.78 350.50 403.62 353.56 408.42 355.58 C 413.84 357.79 419.49 359.81 425.29 360.64 C 433.14 361.68 440.69 360.82 448.47 359.72 C 462.03 357.93 476.02 358.83 488.01 365.98 C 492.01 368.25 494.87 371.57 498.34 374.47 C 496.70 368.67 493.62 363.75 490.01 359.00 C 484.79 352.35 478.50 346.33 470.30 343.68 C 464.46 341.55 458.65 341.94 452.62 340.44 C 453.77 339.70 454.98 338.81 456.27 338.36 C 466.63 336.85 477.37 339.09 486.12 344.89 C 491.97 348.62 495.89 353.54 500.82 358.25 C 502.73 349.56 502.49 340.34 500.29 331.73 C 497.27 319.90 488.70 309.71 478.00 304.00 C 469.51 299.29 460.96 295.93 453.08 289.91 C 445.00 283.86 438.96 275.37 434.70 266.30 C 427.83 250.57 427.61 234.01 428.17 217.14 C 428.20 215.42 430.02 214.56 431.11 213.44 C 432.60 217.50 432.86 221.65 433.23 225.90 C 434.37 234.22 435.58 242.77 438.23 250.75 C 440.93 258.43 444.84 266.04 449.50 272.71 C 450.04 264.14 451.78 255.71 454.66 247.63 C 456.54 242.73 459.41 237.63 464.44 235.42 C 469.21 233.11 475.52 235.84 478.19 240.13 C 478.32 241.42 478.35 242.72 478.30 244.03 C 475.35 243.48 471.53 241.24 468.65 242.59 C 463.25 244.45 460.30 249.40 458.47 254.51 C 456.17 261.77 455.16 269.77 457.91 277.06 C 459.78 281.95 463.32 285.49 467.42 288.58 C 475.20 294.22 484.70 297.93 492.45 303.54 C 496.03 306.08 499.31 308.87 502.36 312.03 C 502.76 306.42 502.96 300.81 503.24 295.20 C 504.80 282.13 504.36 267.28 498.94 255.07 C 493.96 244.22 487.51 234.23 480.22 224.79 C 471.31 212.96 465.51 199.40 467.19 184.31 C 467.75 183.16 468.39 182.04 469.10 180.96 C 472.25 185.92 472.85 192.45 475.00 197.98 C 478.03 207.16 483.33 215.14 489.66 222.35 C 494.91 228.33 500.04 234.30 504.05 241.22 C 504.15 235.46 504.10 229.70 504.03 223.95 C 503.97 218.28 502.27 213.13 500.00 208.01 C 496.15 199.50 492.90 190.83 491.50 181.55 C 490.43 175.87 491.37 169.79 493.48 164.45 C 494.05 162.79 495.32 162.25 496.72 161.41 C 497.21 166.18 496.60 170.91 497.52 175.54 C 499.66 187.19 504.98 198.38 511.71 208.07 C 521.52 196.31 526.85 181.25 527.04 165.97 C 527.01 164.00 527.34 162.31 528.01 160.46 Z" fill="#ffffff" />
<path d="M 355.33 206.68 C 357.66 211.45 358.87 216.83 360.38 221.90 C 365.54 221.80 370.69 221.72 375.84 221.65 C 371.78 224.98 367.45 228.02 363.16 231.06 C 364.68 236.10 365.91 241.24 367.16 246.36 C 363.16 243.44 359.23 240.42 355.26 237.47 C 351.16 240.49 347.07 243.57 342.85 246.41 C 344.31 241.29 346.01 236.25 347.34 231.09 C 343.03 227.84 338.65 224.71 334.30 221.51 C 339.74 221.64 345.17 221.73 350.60 221.90 C 352.02 216.79 353.61 211.70 355.33 206.68 Z" fill="#ffffff" />
<path d="M 670.00 205.82 C 671.94 211.03 673.39 216.44 675.11 221.73 C 680.36 221.53 685.62 221.54 690.87 221.54 C 686.63 224.84 682.31 228.04 677.96 231.17 C 679.79 236.21 681.33 241.32 683.00 246.41 C 678.66 243.52 674.43 240.44 670.28 237.29 C 666.14 240.34 662.09 243.54 657.80 246.37 C 659.29 241.34 660.71 236.31 662.08 231.25 C 657.56 228.02 653.13 224.65 648.64 221.38 C 654.07 221.74 659.50 221.79 664.94 221.96 C 666.65 216.59 668.14 211.14 670.00 205.82 Z" fill="#ffffff" />
<path d="M 634.56 248.82 C 635.04 249.54 635.51 250.27 635.98 251.00 C 631.05 259.11 626.76 267.31 625.95 276.96 C 625.34 289.79 628.14 302.55 624.66 315.66 C 622.71 322.27 620.51 329.44 616.70 335.23 C 616.11 331.13 615.98 326.99 615.21 322.91 C 614.24 316.46 611.77 310.27 608.12 304.88 C 605.62 301.23 601.47 298.35 597.00 297.97 C 593.61 298.18 589.84 300.07 587.86 302.86 C 586.00 305.92 585.29 309.52 583.45 312.62 C 581.64 308.96 581.43 304.83 583.13 301.10 C 586.25 293.51 595.84 289.32 603.49 292.53 C 610.23 295.26 614.03 300.59 618.02 306.33 C 617.98 302.22 617.77 298.11 617.58 294.00 C 616.51 279.96 621.63 265.79 629.07 254.07 C 630.44 251.82 632.39 250.25 634.56 248.82 Z" fill="#ffffff" />
<path d="M 388.81 249.92 C 389.83 249.78 390.84 249.71 391.85 249.71 C 393.14 250.89 394.17 252.42 395.14 253.86 C 400.37 261.89 404.34 270.57 406.00 280.05 C 407.74 288.40 406.88 297.58 406.17 306.03 C 409.83 301.10 412.83 296.41 418.49 293.50 C 426.04 289.63 435.88 292.54 440.35 299.64 C 442.50 303.24 441.89 306.74 442.00 310.74 C 441.39 311.19 440.77 311.64 440.16 312.09 C 438.69 308.31 437.65 303.28 434.20 300.80 C 431.11 298.72 427.43 297.19 423.75 298.75 C 417.21 300.98 413.68 307.31 411.42 313.43 C 408.66 320.67 408.90 327.78 407.61 335.29 C 403.81 329.52 401.60 322.87 399.64 316.28 C 397.12 308.10 397.80 298.60 398.20 290.09 C 399.80 279.06 398.08 267.14 392.64 257.34 C 391.26 254.78 389.61 252.69 388.81 249.92 Z" fill="#ffffff" />
<path d="M 0.00 511.89 C 166.32 512.01 332.70 511.81 499.02 511.99 C 499.00 519.92 499.12 527.78 498.44 535.69 C 497.82 542.57 498.24 549.45 497.62 556.32 C 496.76 565.19 497.18 574.09 496.37 582.96 C 495.90 597.94 495.53 614.80 488.42 628.41 C 482.83 639.91 472.21 648.39 460.05 652.08 C 451.21 654.78 441.55 655.20 432.41 656.44 C 418.48 657.90 404.69 658.15 392.09 665.09 C 385.24 668.74 379.82 674.70 376.96 681.93 C 375.24 686.27 375.65 691.67 378.61 695.39 C 381.54 698.86 386.44 700.41 390.88 699.94 L 391.53 698.16 C 389.00 696.11 385.16 695.13 384.37 691.58 C 382.77 686.51 385.63 680.75 389.19 677.20 C 395.20 671.16 403.99 667.72 412.28 666.37 C 419.62 665.56 427.02 664.91 434.41 665.00 C 430.61 668.60 426.86 671.60 424.24 676.26 C 421.86 680.54 420.15 685.08 422.03 689.92 C 423.54 694.52 427.83 696.66 432.24 697.69 C 433.91 697.87 435.76 696.76 437.33 696.26 C 435.15 694.82 432.29 693.40 430.77 691.22 C 429.42 688.97 428.69 686.17 429.54 683.60 C 430.97 678.40 435.83 674.07 440.17 671.17 C 449.54 665.18 459.49 664.62 470.23 663.59 C 467.40 668.08 465.00 672.53 464.67 677.95 C 464.36 682.96 464.65 688.71 468.73 692.25 C 471.41 694.66 475.42 694.03 478.72 693.99 C 476.81 691.66 474.20 689.95 472.42 687.54 C 470.99 682.95 472.15 677.69 474.67 673.67 C 476.98 669.71 480.90 667.00 484.82 664.80 C 490.73 661.59 498.21 661.16 504.79 660.63 C 513.73 659.70 522.42 659.20 531.13 661.88 C 536.92 663.70 543.01 666.36 547.56 670.46 C 551.81 674.27 554.25 680.94 552.51 686.50 C 551.67 689.35 549.20 690.53 547.01 692.26 C 547.11 693.22 547.21 694.18 547.32 695.14 C 550.50 694.49 553.43 694.12 556.09 692.09 C 560.79 688.62 562.01 681.97 560.38 676.61 C 558.87 671.32 555.74 667.38 552.67 662.97 C 556.86 663.43 561.05 664.01 565.19 664.79 C 573.55 666.31 581.69 668.01 588.36 673.65 C 592.38 677.10 596.63 682.42 596.87 687.91 C 596.31 692.85 591.97 693.76 588.45 696.20 C 590.61 696.70 592.53 697.58 594.73 696.87 C 598.61 695.59 602.61 692.88 603.90 688.81 C 604.66 685.90 604.43 682.50 603.23 679.73 C 600.47 673.62 596.02 669.22 591.02 664.92 C 601.03 665.64 611.47 666.86 621.03 669.95 C 626.47 671.63 631.91 673.91 635.84 678.19 C 639.35 681.85 640.05 687.91 638.60 692.60 C 637.31 695.50 634.13 697.32 632.37 700.00 C 634.96 699.87 637.37 699.86 639.77 698.78 C 643.50 697.13 645.96 693.70 646.73 689.74 C 647.99 682.63 645.35 674.88 640.01 670.01 C 634.97 665.29 628.00 662.41 621.43 660.57 C 604.12 655.55 584.75 657.13 566.94 653.06 C 553.07 650.03 540.61 640.30 534.57 627.41 C 529.03 616.13 528.18 602.43 527.08 590.04 C 527.05 579.65 525.94 569.34 525.93 558.95 C 525.76 552.62 524.96 546.34 524.99 540.00 C 525.03 530.69 524.75 521.38 524.52 512.07 C 530.02 511.82 535.50 511.93 541.00 511.92 C 702.00 511.93 863.00 511.93 1024.00 511.92 L 1024.00 1024.00 L 0.00 1024.00 L 0.00 511.89 Z" fill="#ffcb00" />
<path d="M 34.08 775.86 C 42.27 776.14 50.46 775.82 58.65 776.06 C 65.17 791.85 71.83 807.58 78.43 823.33 C 85.54 807.65 92.32 791.82 99.21 776.05 C 107.10 775.94 114.98 775.96 122.86 775.98 C 122.75 784.37 123.45 792.64 123.93 801.00 C 123.78 810.06 125.03 819.00 125.07 828.05 C 125.74 841.70 126.74 855.34 127.24 869.00 C 120.35 868.98 113.45 869.12 106.56 868.98 C 106.16 856.64 106.13 844.30 105.14 832.00 C 105.07 823.47 104.08 815.02 103.77 806.49 C 95.11 824.97 86.85 843.68 78.24 862.18 C 69.58 843.45 61.71 824.36 53.20 805.57 C 52.97 809.77 52.84 813.98 52.44 818.17 C 51.68 826.50 52.26 834.83 51.55 843.17 C 50.78 851.75 50.99 860.28 50.90 868.96 C 43.79 868.94 36.69 869.13 29.58 869.14 C 30.02 861.08 30.05 853.05 30.87 845.00 C 30.78 835.93 32.07 827.01 32.08 817.96 C 32.19 812.96 32.89 808.01 32.97 803.01 C 33.10 793.93 34.23 784.94 34.08 775.86 Z" fill="#ffffff" />
<path d="M 146.34 776.18 C 153.18 775.66 160.09 776.17 166.96 775.89 C 166.96 806.92 166.98 837.96 166.95 868.99 C 160.04 869.00 153.13 869.01 146.21 868.98 C 146.39 838.14 146.13 806.99 146.34 776.18 Z" fill="#ffffff" />
<path d="M 189.16 776.16 C 193.74 775.77 198.40 776.04 203.00 776.00 C 211.93 776.12 220.30 775.59 229.13 776.77 C 238.44 777.73 247.34 780.43 254.90 786.11 C 263.35 792.22 268.74 802.37 270.47 812.52 C 271.58 820.43 271.49 828.89 269.70 836.70 C 267.48 847.01 261.00 856.41 252.11 862.10 C 243.96 867.28 233.54 869.20 224.00 869.01 C 212.34 868.95 200.68 869.04 189.01 868.98 C 188.99 841.65 189.02 814.33 189.00 787.00 C 189.01 783.40 188.83 779.75 189.16 776.16 Z" fill="#ffffff" />
<path d="M 289.15 776.16 C 293.41 775.79 297.73 776.04 302.00 776.01 C 311.92 776.17 321.22 775.45 331.01 776.91 C 341.54 778.09 351.92 781.85 359.47 789.52 C 366.35 796.31 370.04 805.32 371.28 814.80 C 372.75 823.37 371.76 832.01 369.28 840.29 C 366.04 850.78 357.96 859.41 348.17 864.16 C 340.55 867.98 331.43 869.12 323.00 869.01 C 311.67 868.96 300.35 869.03 289.02 868.98 C 288.97 841.99 289.02 814.99 289.00 788.00 C 289.02 784.07 288.79 780.08 289.15 776.16 Z" fill="#ffffff" />
<path d="M 390.17 776.17 C 396.74 775.71 403.39 776.12 409.98 776.02 C 410.02 801.34 409.96 826.67 410.01 851.99 C 421.81 852.03 433.62 852.00 445.42 852.01 C 445.47 857.80 445.49 863.59 445.41 869.38 C 426.98 868.55 408.47 869.21 390.02 868.99 C 389.97 841.99 390.03 815.00 390.01 788.00 C 390.03 784.07 389.80 780.09 390.17 776.17 Z" fill="#ffffff" />
<path d="M 461.16 776.16 C 479.39 775.78 497.74 776.12 515.98 776.02 C 516.00 781.34 516.00 786.67 515.98 791.99 C 504.56 792.00 493.14 791.98 481.72 792.00 C 481.65 799.00 481.65 805.99 481.66 812.99 C 491.77 813.04 501.89 812.99 512.00 813.02 C 512.08 818.56 512.06 824.11 511.96 829.66 C 501.89 829.49 491.81 829.54 481.74 829.61 C 481.63 837.39 481.66 845.17 481.80 852.94 C 493.86 852.85 506.01 853.34 518.05 852.56 C 518.05 858.03 518.08 863.51 518.03 868.98 C 499.03 869.02 480.03 868.99 461.03 868.99 C 460.96 841.33 461.05 813.66 460.99 786.00 C 461.00 782.74 460.85 779.41 461.16 776.16 Z" fill="#ffffff" />
<path d="M 578.31 776.18 C 581.51 775.85 584.79 776.00 588.00 775.99 C 603.34 776.04 618.67 775.98 634.01 776.02 C 634.03 781.35 634.01 786.67 633.98 791.99 C 622.34 792.03 610.69 791.94 599.05 792.04 C 598.96 799.03 598.98 806.01 599.01 812.99 C 609.00 813.03 618.98 812.99 628.97 813.01 C 629.00 818.56 629.00 824.11 628.98 829.67 C 618.99 829.51 608.99 829.54 599.00 829.61 C 599.00 837.38 598.95 845.16 599.06 852.94 C 611.03 852.84 623.07 853.35 635.02 852.62 C 634.97 858.07 635.00 863.53 634.98 868.99 C 616.03 869.08 597.08 868.82 578.14 869.15 C 578.25 838.21 577.98 807.08 578.31 776.18 Z" fill="#ffffff" />
<path d="M 682.20 776.16 C 689.99 775.69 697.88 776.11 705.70 776.06 C 716.99 807.12 728.52 838.12 739.96 869.13 C 732.40 868.91 724.85 869.04 717.28 868.96 C 714.96 862.46 712.92 855.83 710.42 849.41 C 709.06 848.42 706.68 848.85 705.04 848.69 C 695.38 848.88 685.68 848.53 676.03 848.78 C 672.85 855.10 671.07 862.27 668.69 868.95 C 661.42 869.02 654.15 869.01 646.87 868.98 C 657.00 841.52 667.22 814.11 677.80 786.83 C 679.21 783.32 680.13 779.33 682.20 776.16 Z" fill="#ffffff" />
<path d="M 753.63 776.00 C 763.76 776.02 773.90 775.99 784.03 776.01 C 791.62 776.18 799.89 777.17 806.15 781.85 C 818.21 790.58 819.41 810.65 809.28 821.27 C 806.00 824.74 802.02 826.45 797.77 828.40 C 807.69 841.79 816.97 855.63 826.91 868.99 C 819.04 868.97 811.18 869.06 803.31 868.93 C 795.42 856.37 786.83 844.26 778.92 831.70 C 777.29 831.72 775.66 831.74 774.02 831.76 C 773.95 844.18 774.03 856.60 773.98 869.01 C 767.20 868.98 760.42 868.93 753.63 869.23 C 753.53 838.15 753.55 807.08 753.63 776.00 Z" fill="#ffffff" />
<path d="M 826.16 776.17 C 827.77 776.00 829.37 775.97 830.98 775.96 C 851.64 776.08 872.30 775.95 892.96 776.03 C 892.99 781.68 893.00 787.33 892.99 792.98 C 885.10 792.93 877.22 792.87 869.34 792.94 C 869.49 818.38 869.41 843.83 869.41 869.27 C 862.61 868.87 855.83 869.03 849.03 869.02 C 848.96 843.66 849.06 818.29 848.99 792.92 C 841.34 792.95 833.69 792.85 826.04 792.96 C 826.07 787.39 825.65 781.73 826.16 776.17 Z" fill="#ffffff" />
<path d="M 908.17 776.13 C 914.74 775.69 921.39 776.11 927.98 776.02 C 928.01 788.36 927.98 800.70 928.01 813.03 C 941.34 813.11 954.66 813.02 967.99 813.09 C 968.02 800.73 967.99 788.37 968.01 776.01 C 974.78 775.98 981.56 776.00 988.33 776.01 C 988.35 807.12 988.27 838.23 988.40 869.33 C 981.60 868.86 974.82 869.01 968.02 869.00 C 967.99 856.00 968.02 842.99 967.99 829.99 C 954.66 830.00 941.33 829.99 928.00 830.01 C 927.99 843.11 928.01 856.20 927.99 869.30 C 921.33 868.85 914.67 868.98 908.01 869.23 C 907.99 842.15 908.02 815.08 908.00 788.00 C 908.03 784.06 907.81 780.06 908.17 776.13 Z" fill="#ffffff" />
<path d="M 774.19 791.16 C 779.57 790.57 786.70 790.35 791.28 793.71 C 798.37 798.18 797.92 810.59 790.56 814.58 C 785.24 817.72 779.97 816.97 774.08 816.77 C 774.08 808.25 773.69 799.66 774.19 791.16 Z" fill="#ffcb00" />
<path d="M 209.03 792.83 C 214.04 792.90 219.05 792.77 224.05 792.92 C 230.91 793.18 237.61 795.54 242.32 800.69 C 248.29 807.16 250.52 816.42 250.08 825.04 C 249.89 834.00 246.83 842.96 238.93 847.93 C 230.49 853.79 218.80 852.31 208.99 852.42 C 209.02 832.56 208.96 812.69 209.03 792.83 Z" fill="#ffcb00" />
<path d="M 309.01 792.86 C 317.05 793.13 326.56 791.82 334.00 794.98 C 342.62 798.35 348.41 807.23 349.98 816.10 C 351.55 823.14 350.86 830.55 348.24 837.25 C 345.25 844.67 338.39 850.01 330.59 851.55 C 323.66 852.93 316.04 852.42 308.99 852.40 C 308.99 832.55 308.96 812.71 309.01 792.86 Z" fill="#ffcb00" />
<path d="M 692.72 798.99 C 694.40 802.24 695.54 805.82 696.75 809.27 C 699.42 817.23 702.35 825.09 705.11 833.01 C 697.01 833.01 688.90 833.08 680.81 832.94 C 684.67 821.59 688.84 810.34 692.72 798.99 Z" fill="#ffcb00" />
<path d="M 527.57 828.61 C 539.67 828.25 551.83 828.67 563.94 828.43 C 564.00 832.95 564.00 837.47 563.99 841.99 C 551.78 842.08 539.56 842.05 527.35 841.98 C 527.51 837.53 527.24 833.05 527.57 828.61 Z" fill="#ffffff" />
</svg>