<?xml version="1.0" encoding="UTF-8" standalone="no"?>
<!DOCTYPE svg PUBLIC "-//W3C//DTD SVG 1.1//EN" "http://www.w3.org/Graphics/SVG/1.1/DTD/svg11.dtd">
<svg xmlns="http://www.w3.org/2000/svg" version="1.1" viewBox="0 0 1322 793" width="1322.0pt" height="793.0pt">
<path d="M 0.00 0.00 L 1322.00 0.00 L 1322.00 264.33 C 1213.52 264.37 1104.99 264.25 996.52 264.39 C 994.59 260.26 992.98 256.02 991.15 251.85 C 974.28 213.38 950.62 177.78 921.54 147.47 C 895.50 120.15 865.10 97.04 831.88 79.15 C 780.56 51.46 722.32 36.43 664.00 36.11 C 615.47 35.61 566.82 45.31 522.07 64.05 C 483.57 80.15 447.95 103.00 417.24 131.24 C 377.30 167.94 345.78 213.80 325.96 264.29 C 217.32 264.38 108.65 264.31 0.00 264.33 L 0.00 0.00 Z" fill="#0f6938" />
<path d="M 664.00 36.11 C 722.32 36.43 780.56 51.46 831.88 79.15 C 865.10 97.04 895.50 120.15 921.54 147.47 C 950.62 177.78 974.28 213.38 991.15 251.85 C 992.98 256.02 994.59 260.26 996.52 264.39 C 1104.99 264.25 1213.52 264.37 1322.00 264.33 L 1322.00 528.67 C 1213.35 528.70 1104.68 528.61 996.04 528.71 C 978.95 572.19 953.24 612.20 920.93 645.93 C 895.65 672.27 866.36 694.80 834.34 712.34 C 792.64 735.33 746.34 749.85 698.99 754.91 C 648.87 760.25 597.73 754.95 549.81 739.31 C 485.57 718.63 427.60 679.40 384.39 627.57 C 362.42 601.30 344.24 571.87 330.56 540.47 C 328.84 536.52 327.30 532.51 325.48 528.61 C 217.01 528.75 108.48 528.63 0.00 528.67 L 0.00 264.33 C 108.65 264.31 217.32 264.38 325.96 264.29 C 345.78 213.80 377.30 167.94 417.24 131.24 C 447.95 103.00 483.57 80.15 522.07 64.05 C 566.82 45.31 615.47 35.61 664.00 36.11 Z" fill="#ee1f23" />
<path d="M 854.45 107.55 C 878.64 123.74 900.77 143.05 920.14 164.77 C 747.36 164.82 574.56 164.83 401.78 164.77 C 429.12 134.13 461.88 108.39 498.17 89.17 C 540.70 66.53 587.95 52.93 635.99 49.41 C 712.67 43.65 790.72 64.59 854.45 107.55 Z" fill="#000000" />
<path d="M 360.01 222.21 C 373.94 227.30 387.86 232.59 401.44 238.55 C 434.32 252.75 465.01 271.52 492.21 294.85 C 487.80 298.79 483.38 302.71 478.97 306.65 C 447.83 298.33 416.02 293.85 383.76 293.77 C 377.13 310.44 372.83 328.18 369.54 345.79 C 406.84 344.44 446.32 345.64 482.24 356.70 C 500.05 362.09 517.05 370.07 532.32 380.74 C 543.91 367.54 555.32 354.20 566.90 341.00 C 572.84 346.27 578.95 351.35 584.83 356.69 C 573.42 369.64 562.15 382.72 550.86 395.78 C 570.43 414.20 585.12 436.30 596.86 460.36 C 592.78 460.17 588.19 460.85 584.23 460.03 C 580.27 455.37 576.59 450.51 572.22 446.20 C 562.63 456.05 549.72 462.43 536.01 463.67 C 528.66 464.21 521.32 463.87 514.22 461.76 C 496.72 456.91 482.06 443.48 475.64 426.50 C 471.35 415.37 470.61 403.42 473.43 391.82 C 457.27 387.68 440.61 385.13 424.01 383.60 C 404.54 381.94 384.85 381.64 365.39 383.35 C 365.14 387.93 364.71 392.42 364.67 397.00 C 364.73 427.82 369.72 458.50 379.19 487.81 C 397.16 488.15 415.01 487.05 432.99 488.28 C 455.29 489.52 478.77 494.09 497.93 506.10 C 513.83 515.85 525.91 530.57 533.48 547.53 C 543.58 569.75 546.76 595.80 546.98 620.00 C 547.19 636.08 545.91 652.04 544.22 668.02 C 567.10 677.86 590.80 684.78 615.37 688.86 C 628.36 675.68 641.08 662.25 654.00 649.00 C 656.33 646.54 658.60 644.06 661.29 641.98 C 676.33 657.68 691.41 673.35 706.63 688.87 C 731.19 684.80 754.87 677.87 777.74 668.03 C 775.65 648.31 774.09 628.03 775.31 608.21 C 776.46 585.94 780.54 562.78 790.75 542.75 C 798.79 526.91 811.10 513.39 826.58 504.58 C 845.90 493.35 868.94 489.24 891.00 488.17 C 908.31 487.10 925.50 488.15 942.77 487.81 C 950.84 462.61 955.79 436.46 956.92 410.00 C 957.56 401.09 957.24 392.25 956.58 383.35 C 940.78 381.91 924.81 381.97 908.98 382.78 C 888.68 384.10 868.25 386.77 848.53 391.85 C 850.03 398.87 850.84 405.89 849.70 413.03 C 847.72 428.88 838.96 443.64 825.96 452.93 C 815.88 460.25 803.47 464.23 791.00 463.89 C 775.50 463.93 760.51 457.27 749.74 446.21 C 746.16 449.84 742.84 453.67 739.72 457.70 C 738.96 458.56 738.24 459.76 737.19 460.28 C 733.18 460.57 729.12 460.30 725.09 460.36 C 736.82 436.29 751.52 414.19 771.10 395.78 C 759.81 382.72 748.53 369.65 737.14 356.69 C 743.02 351.36 749.11 346.25 755.08 341.02 C 766.65 354.22 778.05 367.57 789.66 380.74 C 806.99 368.58 826.43 360.13 846.83 354.66 C 880.93 345.55 917.31 344.48 952.39 345.81 C 949.15 328.17 944.77 310.51 938.23 293.79 C 906.02 293.81 874.10 298.38 842.99 306.65 C 838.59 302.69 834.15 298.79 829.75 294.84 C 849.85 277.61 872.02 262.76 895.48 250.49 C 917.00 239.25 939.14 230.55 961.92 222.25 C 995.61 280.32 1012.29 347.91 1008.62 415.00 C 1005.98 466.59 991.63 517.51 966.84 562.84 C 943.03 606.55 909.75 645.02 869.94 674.89 C 826.81 707.34 776.12 729.56 722.98 739.01 C 652.69 751.75 578.69 742.35 513.98 712.03 C 468.55 690.87 427.84 659.76 395.45 621.53 C 366.61 587.60 344.36 548.10 330.41 505.81 C 315.27 460.01 309.77 411.00 314.54 363.00 C 319.33 314.45 334.43 267.02 358.64 224.66 C 359.09 223.85 359.55 223.03 360.01 222.21 Z" fill="#000000" />
<path d="M 500.01 382.09 C 507.37 384.25 514.44 387.80 521.36 391.08 C 515.86 395.10 512.57 401.07 513.60 408.02 C 514.77 416.82 523.22 423.32 532.03 422.30 C 540.04 421.43 546.01 414.99 547.06 407.12 C 553.28 411.58 559.18 416.44 565.05 421.36 C 562.73 427.05 558.66 432.06 553.83 435.82 C 543.86 443.76 530.07 445.99 518.01 442.01 C 506.64 438.24 497.34 428.93 493.69 417.51 C 489.72 405.79 492.09 391.63 500.01 382.09 Z" fill="#fae82f" />
<path d="M 822.05 381.95 C 829.36 391.58 832.14 404.31 828.70 415.99 C 824.42 431.83 809.45 443.68 793.00 443.90 C 777.90 444.62 762.71 435.38 756.92 421.35 C 762.80 416.43 768.67 411.54 774.94 407.12 C 775.57 410.98 776.90 414.48 779.72 417.28 C 784.77 422.59 792.99 423.93 799.47 420.48 C 806.16 417.07 809.82 409.30 808.12 401.96 C 807.19 397.29 804.26 393.95 800.63 391.08 C 807.62 387.66 814.66 384.42 822.05 381.95 Z" fill="#fae82f" />
<path d="M 0.00 528.67 C 108.48 528.63 217.01 528.75 325.48 528.61 C 327.30 532.51 328.84 536.52 330.56 540.47 C 344.24 571.87 362.42 601.30 384.39 627.57 C 427.60 679.40 485.57 718.63 549.81 739.31 C 597.73 754.95 648.87 760.25 698.99 754.91 C 746.34 749.85 792.64 735.33 834.34 712.34 C 866.36 694.80 895.65 672.27 920.93 645.93 C 953.24 612.20 978.95 572.19 996.04 528.71 C 1104.68 528.61 1213.35 528.70 1322.00 528.67 L 1322.00 793.00 L 0.00 793.00 L 0.00 528.67 Z" fill="#0f6938" />
<path d="M 598.79 577.51 C 640.25 577.40 681.72 577.41 723.18 577.51 C 712.41 588.63 701.63 599.75 690.90 610.90 C 681.32 620.95 671.32 630.69 662.07 641.03 C 661.36 641.07 660.66 641.10 659.95 641.13 C 656.88 637.23 653.13 633.89 649.78 630.22 C 632.76 612.67 615.81 595.06 598.79 577.51 Z" fill="#000000" />
</svg>